<svg width="49" height="48" viewBox="0 0 49 48" fill="none" xmlns="http://www.w3.org/2000/svg">
<g clip-path="url(#clip0_373_31712)">
<path d="M8.14406 35.682C8.45971 35.9946 8.70159 36.372 8.85245 36.7874C9.00331 37.2027 9.05945 37.6458 9.01685 38.085C8.80312 40.1177 8.39792 42.1264 7.80649 44.085C12.0488 43.116 14.6398 41.994 15.8167 41.406C16.4843 41.0725 17.253 40.9934 17.9759 41.184C20.0482 41.729 22.1841 42.0033 24.3288 42C36.481 42 45.6164 33.579 45.6164 24C45.6164 14.424 36.481 6 24.3288 6C12.1765 6 3.0411 14.424 3.0411 24C3.0411 28.404 4.91745 32.49 8.14406 35.682ZM6.64479 47.397C5.92426 47.5379 5.2014 47.6669 4.47649 47.784C3.86827 47.88 3.40603 47.256 3.64627 46.698C3.9163 46.0698 4.16379 45.4324 4.3883 44.787L4.39742 44.757C5.15162 42.597 5.76592 40.113 5.99096 37.8C2.25953 34.11 0 29.28 0 24C0 12.402 10.8932 3 24.3288 3C37.7643 3 48.6575 12.402 48.6575 24C48.6575 35.598 37.7643 45 24.3288 45C21.9192 45.0032 19.5195 44.6946 17.1913 44.082C15.6099 44.871 12.207 46.308 6.64479 47.397Z" fill="white"/>
<path d="M21.4881 20.2799C20.8957 19.3699 20.0199 18.6741 18.9923 18.2971C17.9647 17.9202 16.8409 17.8824 15.7897 18.1895C14.7385 18.4966 13.8167 19.132 13.1629 20.0002C12.5091 20.8684 12.1586 21.9224 12.1641 23.0039C12.1647 23.8995 12.409 24.7786 12.8716 25.5492C13.3342 26.3198 13.9981 26.9537 14.7939 27.3847C15.5898 27.8157 16.4883 28.028 17.3957 27.9994C18.3031 27.9707 19.1861 27.7023 19.9524 27.2219C19.554 28.3889 18.812 29.6339 17.5894 30.8819C17.3555 31.1206 17.2273 31.4412 17.233 31.7732C17.2359 31.9375 17.2715 32.0997 17.3379 32.2505C17.4042 32.4013 17.5 32.5377 17.6199 32.6519C17.7397 32.7662 17.8811 32.856 18.0361 32.9164C18.1911 32.9767 18.3567 33.0063 18.5233 33.0035C18.8598 32.9979 19.1802 32.8606 19.4141 32.6219C23.9332 28.0019 23.3462 22.9799 21.4881 20.2859V20.2799ZM33.6525 20.2799C33.0601 19.3699 32.1843 18.6741 31.1567 18.2971C30.1291 17.9202 29.0053 17.8824 27.9541 18.1895C26.9028 18.4966 25.9811 19.132 25.3273 20.0002C24.6735 20.8684 24.323 21.9224 24.3285 23.0039C24.3291 23.8995 24.5734 24.7786 25.036 25.5492C25.4986 26.3198 26.1625 26.9537 26.9583 27.3847C27.7541 27.8157 28.6527 28.028 29.5601 27.9994C30.4675 27.9707 31.3505 27.7023 32.1168 27.2219C31.7184 28.3889 30.9763 29.6339 29.7538 30.8819C29.638 31.0001 29.5469 31.1397 29.4858 31.2926C29.4246 31.4455 29.3946 31.6088 29.3974 31.7732C29.4003 31.9375 29.4359 32.0997 29.5022 32.2505C29.5686 32.4013 29.6644 32.5377 29.7842 32.6519C29.904 32.7662 30.0455 32.856 30.2005 32.9164C30.3555 32.9767 30.521 33.0063 30.6877 33.0035C30.8543 33.0007 31.0187 32.9656 31.1715 32.9001C31.3244 32.8347 31.4627 32.7401 31.5785 32.6219C36.0975 28.0019 35.5106 22.9799 33.6525 20.2859V20.2799Z" fill="white"/>
</g>
<defs>
<clipPath id="clip0_373_31712">
<rect width="48.6575" height="48" fill="white"/>
</clipPath>
</defs>
</svg>
