<svg width="1140" height="777" viewBox="0 0 1140 777" fill="none" xmlns="http://www.w3.org/2000/svg">
<g filter="url(#filter0_dd_176_13705)">
<g clip-path="url(#clip0_176_13705)">
<rect x="20" y="10" width="1100" height="727" rx="20" fill="white"/>
<path d="M41.0007 34.6937C38.6994 34.6937 36.834 32.8283 36.834 30.5271C36.834 28.2258 38.6994 26.3604 41.0007 26.3604C43.3019 26.3604 45.1673 28.2258 45.1673 30.5271C45.1673 32.8283 43.3019 34.6937 41.0007 34.6937Z" fill="#E11D48"/>
<path d="M56.0007 34.6937C53.6994 34.6937 51.834 32.8283 51.834 30.5271C51.834 28.2258 53.6994 26.3604 56.0007 26.3604C58.3019 26.3604 60.1673 28.2258 60.1673 30.5271C60.1673 32.8283 58.3019 34.6937 56.0007 34.6937Z" fill="#FBBF24"/>
<path d="M71.0007 34.6937C68.6994 34.6937 66.834 32.8283 66.834 30.5271C66.834 28.2258 68.6994 26.3604 71.0007 26.3604C73.3019 26.3604 75.1673 28.2258 75.1673 30.5271C75.1673 32.8283 73.3019 34.6937 71.0007 34.6937Z" fill="#22C55E"/>
<path d="M1061.76 30.5L1066.71 35.45C1066.8 35.5422 1066.88 35.6526 1066.93 35.7746C1066.98 35.8966 1067.01 36.0278 1067.01 36.1606C1067.01 36.2934 1066.99 36.4251 1066.94 36.548C1066.89 36.6708 1066.81 36.7825 1066.72 36.8764C1066.63 36.9703 1066.51 37.0445 1066.39 37.0948C1066.27 37.1451 1066.14 37.1704 1066 37.1692C1065.87 37.1681 1065.74 37.1405 1065.62 37.0881C1065.5 37.0357 1065.39 36.9595 1065.29 36.864L1059.64 31.207C1059.45 31.0195 1059.34 30.7652 1059.34 30.5C1059.34 30.2348 1059.45 29.9805 1059.64 29.793L1065.29 24.136C1065.48 23.9538 1065.73 23.853 1066 23.8553C1066.26 23.8576 1066.51 23.9628 1066.7 24.1482C1066.88 24.3336 1066.99 24.5844 1066.99 24.8466C1066.99 25.1088 1066.89 25.3614 1066.71 25.55L1061.76 30.5Z" fill="#94A3B8"/>
<path d="M1093.31 30.571L1088.36 25.621C1088.18 25.4324 1088.08 25.1798 1088.08 24.9176C1088.09 24.6554 1088.19 24.4046 1088.38 24.2192C1088.56 24.0338 1088.81 23.9286 1089.08 23.9263C1089.34 23.924 1089.59 24.0248 1089.78 24.207L1095.44 29.864C1095.62 30.0515 1095.73 30.3058 1095.73 30.571C1095.73 30.8362 1095.62 31.0905 1095.44 31.278L1089.78 36.935C1089.59 37.1172 1089.34 37.2179 1089.08 37.2157C1088.81 37.2134 1088.56 37.1082 1088.38 36.9228C1088.19 36.7374 1088.09 36.4866 1088.08 36.2244C1088.08 35.9622 1088.18 35.7096 1088.36 35.521L1093.31 30.571Z" fill="#475569"/>
<rect x="323.514" y="18" width="494.903" height="25" rx="5" fill="#F1F5F9"/>
<path d="M550.875 29.8789V37.4375H549.785V28.6602H550.781L550.875 29.8789ZM555.146 31.7773V31.9004C555.146 32.3613 555.092 32.7891 554.982 33.1836C554.873 33.5742 554.713 33.9141 554.502 34.2031C554.295 34.4922 554.039 34.7168 553.734 34.877C553.43 35.0371 553.08 35.1172 552.686 35.1172C552.283 35.1172 551.928 35.0508 551.619 34.918C551.311 34.7852 551.049 34.5918 550.834 34.3379C550.619 34.084 550.447 33.7793 550.318 33.4238C550.193 33.0684 550.107 32.668 550.061 32.2227V31.5664C550.107 31.0977 550.195 30.6777 550.324 30.3066C550.453 29.9355 550.623 29.6191 550.834 29.3574C551.049 29.0918 551.309 28.8906 551.613 28.7539C551.918 28.6133 552.27 28.543 552.668 28.543C553.066 28.543 553.42 28.6211 553.729 28.7773C554.037 28.9297 554.297 29.1484 554.508 29.4336C554.719 29.7188 554.877 30.0605 554.982 30.459C555.092 30.8535 555.146 31.293 555.146 31.7773ZM554.057 31.9004V31.7773C554.057 31.4609 554.023 31.1641 553.957 30.8867C553.891 30.6055 553.787 30.3594 553.646 30.1484C553.51 29.9336 553.334 29.7656 553.119 29.6445C552.904 29.5195 552.648 29.457 552.352 29.457C552.078 29.457 551.84 29.5039 551.637 29.5977C551.438 29.6914 551.268 29.8184 551.127 29.9785C550.986 30.1348 550.871 30.3145 550.781 30.5176C550.695 30.7168 550.631 30.9238 550.588 31.1387V32.6562C550.666 32.9297 550.775 33.1875 550.916 33.4297C551.057 33.668 551.244 33.8613 551.479 34.0098C551.713 34.1543 552.008 34.2266 552.363 34.2266C552.656 34.2266 552.908 34.166 553.119 34.0449C553.334 33.9199 553.51 33.75 553.646 33.5352C553.787 33.3203 553.891 33.0742 553.957 32.7969C554.023 32.5156 554.057 32.2168 554.057 31.9004ZM557.613 29.6562V35H556.529V28.6602H557.584L557.613 29.6562ZM559.594 28.625L559.588 29.6328C559.498 29.6133 559.412 29.6016 559.33 29.5977C559.252 29.5898 559.162 29.5859 559.061 29.5859C558.811 29.5859 558.59 29.625 558.398 29.7031C558.207 29.7812 558.045 29.8906 557.912 30.0312C557.779 30.1719 557.674 30.3398 557.596 30.5352C557.521 30.7266 557.473 30.9375 557.449 31.168L557.145 31.3438C557.145 30.9609 557.182 30.6016 557.256 30.2656C557.334 29.9297 557.453 29.6328 557.613 29.375C557.773 29.1133 557.977 28.9102 558.223 28.7656C558.473 28.6172 558.77 28.543 559.113 28.543C559.191 28.543 559.281 28.5527 559.383 28.5723C559.484 28.5879 559.555 28.6055 559.594 28.625ZM560.191 31.9004V31.7656C560.191 31.3086 560.258 30.8848 560.391 30.4941C560.523 30.0996 560.715 29.7578 560.965 29.4688C561.215 29.1758 561.518 28.9492 561.873 28.7891C562.229 28.625 562.627 28.543 563.068 28.543C563.514 28.543 563.914 28.625 564.27 28.7891C564.629 28.9492 564.934 29.1758 565.184 29.4688C565.438 29.7578 565.631 30.0996 565.764 30.4941C565.896 30.8848 565.963 31.3086 565.963 31.7656V31.9004C565.963 32.3574 565.896 32.7812 565.764 33.1719C565.631 33.5625 565.438 33.9043 565.184 34.1973C564.934 34.4863 564.631 34.7129 564.275 34.877C563.924 35.0371 563.525 35.1172 563.08 35.1172C562.635 35.1172 562.234 35.0371 561.879 34.877C561.523 34.7129 561.219 34.4863 560.965 34.1973C560.715 33.9043 560.523 33.5625 560.391 33.1719C560.258 32.7812 560.191 32.3574 560.191 31.9004ZM561.275 31.7656V31.9004C561.275 32.2168 561.312 32.5156 561.387 32.7969C561.461 33.0742 561.572 33.3203 561.721 33.5352C561.873 33.75 562.062 33.9199 562.289 34.0449C562.516 34.166 562.779 34.2266 563.08 34.2266C563.377 34.2266 563.637 34.166 563.859 34.0449C564.086 33.9199 564.273 33.75 564.422 33.5352C564.57 33.3203 564.682 33.0742 564.756 32.7969C564.834 32.5156 564.873 32.2168 564.873 31.9004V31.7656C564.873 31.4531 564.834 31.1582 564.756 30.8809C564.682 30.5996 564.568 30.3516 564.416 30.1367C564.268 29.918 564.08 29.7461 563.854 29.6211C563.631 29.4961 563.369 29.4336 563.068 29.4336C562.771 29.4336 562.51 29.4961 562.283 29.6211C562.061 29.7461 561.873 29.918 561.721 30.1367C561.572 30.3516 561.461 30.5996 561.387 30.8809C561.312 31.1582 561.275 31.4531 561.275 31.7656ZM567.34 34.4258C567.34 34.2422 567.396 34.0879 567.51 33.9629C567.627 33.834 567.795 33.7695 568.014 33.7695C568.232 33.7695 568.398 33.834 568.512 33.9629C568.629 34.0879 568.688 34.2422 568.688 34.4258C568.688 34.6055 568.629 34.7578 568.512 34.8828C568.398 35.0078 568.232 35.0703 568.014 35.0703C567.795 35.0703 567.627 35.0078 567.51 34.8828C567.396 34.7578 567.34 34.6055 567.34 34.4258ZM573.141 28.6602V29.4922H569.713V28.6602H573.141ZM570.873 27.1191H571.957V33.4297C571.957 33.6445 571.99 33.8066 572.057 33.916C572.123 34.0254 572.209 34.0977 572.314 34.1328C572.42 34.168 572.533 34.1855 572.654 34.1855C572.744 34.1855 572.838 34.1777 572.936 34.1621C573.037 34.1426 573.113 34.127 573.164 34.1152L573.17 35C573.084 35.0273 572.971 35.0527 572.83 35.0762C572.693 35.1035 572.527 35.1172 572.332 35.1172C572.066 35.1172 571.822 35.0645 571.6 34.959C571.377 34.8535 571.199 34.6777 571.066 34.4316C570.938 34.1816 570.873 33.8457 570.873 33.4238V27.1191ZM577.043 35.1172C576.602 35.1172 576.201 35.043 575.842 34.8945C575.486 34.7422 575.18 34.5293 574.922 34.2559C574.668 33.9824 574.473 33.6582 574.336 33.2832C574.199 32.9082 574.131 32.498 574.131 32.0527V31.8066C574.131 31.291 574.207 30.832 574.359 30.4297C574.512 30.0234 574.719 29.6797 574.98 29.3984C575.242 29.1172 575.539 28.9043 575.871 28.7598C576.203 28.6152 576.547 28.543 576.902 28.543C577.355 28.543 577.746 28.6211 578.074 28.7773C578.406 28.9336 578.678 29.1523 578.889 29.4336C579.1 29.7109 579.256 30.0391 579.357 30.418C579.459 30.793 579.51 31.2031 579.51 31.6484V32.1348H574.775V31.25H578.426V31.168C578.41 30.8867 578.352 30.6133 578.25 30.3477C578.152 30.082 577.996 29.8633 577.781 29.6914C577.566 29.5195 577.273 29.4336 576.902 29.4336C576.656 29.4336 576.43 29.4863 576.223 29.5918C576.016 29.6934 575.838 29.8457 575.689 30.0488C575.541 30.252 575.426 30.5 575.344 30.793C575.262 31.0859 575.221 31.4238 575.221 31.8066V32.0527C575.221 32.3535 575.262 32.6367 575.344 32.9023C575.43 33.1641 575.553 33.3945 575.713 33.5938C575.877 33.793 576.074 33.9492 576.305 34.0625C576.539 34.1758 576.805 34.2324 577.102 34.2324C577.484 34.2324 577.809 34.1543 578.074 33.998C578.34 33.8418 578.572 33.6328 578.771 33.3711L579.428 33.8926C579.291 34.0996 579.117 34.2969 578.906 34.4844C578.695 34.6719 578.436 34.8242 578.127 34.9414C577.822 35.0586 577.461 35.1172 577.043 35.1172ZM583.312 34.2266C583.57 34.2266 583.809 34.1738 584.027 34.0684C584.246 33.9629 584.426 33.8184 584.566 33.6348C584.707 33.4473 584.787 33.2344 584.807 32.9961H585.838C585.818 33.3711 585.691 33.7207 585.457 34.0449C585.227 34.3652 584.924 34.625 584.549 34.8242C584.174 35.0195 583.762 35.1172 583.312 35.1172C582.836 35.1172 582.42 35.0332 582.064 34.8652C581.713 34.6973 581.42 34.4668 581.186 34.1738C580.955 33.8809 580.781 33.5449 580.664 33.166C580.551 32.7832 580.494 32.3789 580.494 31.9531V31.707C580.494 31.2812 580.551 30.8789 580.664 30.5C580.781 30.1172 580.955 29.7793 581.186 29.4863C581.42 29.1934 581.713 28.9629 582.064 28.7949C582.42 28.627 582.836 28.543 583.312 28.543C583.809 28.543 584.242 28.6445 584.613 28.8477C584.984 29.0469 585.275 29.3203 585.486 29.668C585.701 30.0117 585.818 30.4023 585.838 30.8398H584.807C584.787 30.5781 584.713 30.3418 584.584 30.1309C584.459 29.9199 584.287 29.752 584.068 29.627C583.854 29.498 583.602 29.4336 583.312 29.4336C582.98 29.4336 582.701 29.5 582.475 29.6328C582.252 29.7617 582.074 29.9375 581.941 30.1602C581.812 30.3789 581.719 30.623 581.66 30.8926C581.605 31.1582 581.578 31.4297 581.578 31.707V31.9531C581.578 32.2305 581.605 32.5039 581.66 32.7734C581.715 33.043 581.807 33.2871 581.936 33.5059C582.068 33.7246 582.246 33.9004 582.469 34.0332C582.695 34.1621 582.977 34.2266 583.312 34.2266ZM588.141 26V35H587.057V26H588.141ZM587.883 31.5898L587.432 31.5723C587.436 31.1387 587.5 30.7383 587.625 30.3711C587.75 30 587.926 29.6777 588.152 29.4043C588.379 29.1309 588.648 28.9199 588.961 28.7715C589.277 28.6191 589.627 28.543 590.01 28.543C590.322 28.543 590.604 28.5859 590.854 28.6719C591.104 28.7539 591.316 28.8867 591.492 29.0703C591.672 29.2539 591.809 29.4922 591.902 29.7852C591.996 30.0742 592.043 30.4277 592.043 30.8457V35H590.953V30.834C590.953 30.502 590.904 30.2363 590.807 30.0371C590.709 29.834 590.566 29.6875 590.379 29.5977C590.191 29.5039 589.961 29.457 589.688 29.457C589.418 29.457 589.172 29.5137 588.949 29.627C588.73 29.7402 588.541 29.8965 588.381 30.0957C588.225 30.2949 588.102 30.5234 588.012 30.7812C587.926 31.0352 587.883 31.3047 587.883 31.5898Z" fill="#94A3B8"/>
<rect x="20" y="51" width="1100" height="686" fill="#E0F2FE"/>
<path d="M20 51.9147H204.255V737H20V51.9147Z" fill="#BAE6FD"/>
<path d="M42.1113 116.856C42.1113 110.794 47.0609 105.88 53.1666 105.88H171.09C177.195 105.88 182.145 110.794 182.145 116.856C182.145 122.918 177.195 127.832 171.09 127.832H53.1666C47.0609 127.832 42.1113 122.918 42.1113 116.856Z" fill="#7DD3FC"/>
<path d="M86.332 193.688C86.332 190.657 88.8068 188.2 91.8597 188.2H183.987C187.04 188.2 189.515 190.657 189.515 193.688C189.515 196.719 187.04 199.176 183.987 199.176H91.8597C88.8068 199.176 86.332 196.719 86.332 193.688Z" fill="white"/>
<path d="M86.332 252.227C86.332 249.196 88.8068 246.739 91.8597 246.739H155.427C158.48 246.739 160.955 249.196 160.955 252.227C160.955 255.258 158.48 257.715 155.427 257.715H91.8597C88.8068 257.715 86.332 255.258 86.332 252.227Z" fill="white"/>
<path d="M86.332 310.765C86.332 307.734 88.8068 305.277 91.8597 305.277H171.089C174.142 305.277 176.617 307.734 176.617 310.765C176.617 313.796 174.142 316.253 171.089 316.253H91.8597C88.8068 316.253 86.332 313.796 86.332 310.765Z" fill="white"/>
<path fill-rule="evenodd" clip-rule="evenodd" d="M56.8517 205.579C63.4662 205.579 68.8282 200.255 68.8282 193.688C68.8282 187.121 63.4662 181.797 56.8517 181.797C50.2372 181.797 44.8751 187.121 44.8751 193.688C44.8751 200.255 50.2372 205.579 56.8517 205.579ZM56.8517 208.323C64.9926 208.323 71.5921 201.771 71.5921 193.688C71.5921 185.606 64.9926 179.053 56.8517 179.053C48.7108 179.053 42.1113 185.606 42.1113 193.688C42.1113 201.771 48.7108 208.323 56.8517 208.323Z" fill="#7DD3FC"/>
<path d="M263.217 116.856C263.217 112.815 266.517 109.539 270.587 109.539H377.455C381.525 109.539 384.825 112.815 384.825 116.856C384.825 120.897 381.525 124.173 377.455 124.173H270.587C266.517 124.173 263.217 120.897 263.217 116.856Z" fill="#BAE6FD"/>
<path fill-rule="evenodd" clip-rule="evenodd" d="M458.987 411.891C459.041 406.674 463.216 402.232 468.581 402.232C471.874 402.232 474.297 403.85 475.843 405.374C476.273 405.799 476.643 406.222 476.952 406.612C477.261 406.222 477.631 405.799 478.061 405.374C479.607 403.85 482.03 402.232 485.323 402.232C490.688 402.232 494.863 406.674 494.917 411.891L494.917 411.892C495.019 422.067 486.784 429.106 478.507 434.685C478.048 434.994 477.507 435.16 476.952 435.16C476.398 435.16 475.856 434.994 475.397 434.685C467.119 429.106 458.884 422.067 458.987 411.892L458.987 411.891ZM478.186 409.709C477.952 410.172 477.474 410.464 476.952 410.464C476.43 410.464 475.952 410.172 475.718 409.709C475.717 409.708 475.717 409.707 475.716 409.706C475.714 409.702 475.712 409.697 475.708 409.69C475.706 409.686 475.703 409.681 475.701 409.676C475.685 409.648 475.659 409.6 475.623 409.538C475.551 409.412 475.438 409.225 475.284 408.997C474.975 408.539 474.512 407.929 473.896 407.322C472.658 406.101 470.895 404.976 468.581 404.976C464.833 404.976 461.791 408.104 461.751 411.919M478.186 409.709C478.187 409.708 478.187 409.707 478.188 409.706C478.191 409.701 478.196 409.691 478.204 409.676C478.219 409.648 478.245 409.6 478.281 409.538C478.353 409.412 478.466 409.225 478.62 408.997C478.929 408.539 479.393 407.929 480.008 407.322C481.246 406.101 483.009 404.976 485.323 404.976C489.071 404.976 492.114 408.103 492.153 411.919C492.239 420.494 485.303 426.788 476.953 432.415L476.952 432.416L476.951 432.415C468.6 426.788 461.664 420.494 461.751 411.92" fill="white"/>
<path d="M263.217 418.696C263.217 414.655 266.517 411.379 270.587 411.379H320.336C324.406 411.379 327.706 414.655 327.706 418.696C327.706 422.737 324.406 426.013 320.336 426.013H270.587C266.517 426.013 263.217 422.737 263.217 418.696Z" fill="#BAE6FD"/>
<path d="M342.445 418.696C342.445 414.655 345.745 411.379 349.815 411.379H432.73C436.801 411.379 440.1 414.655 440.1 418.696C440.1 422.737 436.801 426.013 432.73 426.013H349.815C345.745 426.013 342.445 422.737 342.445 418.696Z" fill="#BAE6FD"/>
<path d="M263.217 490.04C263.217 487.009 265.692 484.552 268.744 484.552H346.131C349.184 484.552 351.659 487.009 351.659 490.04C351.659 493.071 349.184 495.528 346.131 495.528H268.744C265.692 495.528 263.217 493.071 263.217 490.04Z" fill="white"/>
<path d="M263.217 515.651C263.217 512.62 265.692 510.163 268.744 510.163H387.589C390.641 510.163 393.116 512.62 393.116 515.651C393.116 518.682 390.641 521.139 387.589 521.139H268.744C265.692 521.139 263.217 518.682 263.217 515.651Z" fill="white"/>
<path d="M366.398 490.04C366.398 487.009 368.873 484.552 371.926 484.552H464.053C467.106 484.552 469.581 487.009 469.581 490.04C469.581 493.071 467.106 495.528 464.053 495.528H371.926C368.873 495.528 366.398 493.071 366.398 490.04Z" fill="white"/>
<path d="M263.217 188.2C263.217 185.169 265.692 182.712 268.744 182.712H346.131C349.184 182.712 351.659 185.169 351.659 188.2C351.659 191.231 349.184 193.688 346.131 193.688H268.744C265.692 193.688 263.217 191.231 263.217 188.2Z" fill="white"/>
<path d="M263.217 213.811C263.217 210.78 265.692 208.323 268.744 208.323H459.448C462.501 208.323 464.976 210.78 464.976 213.811C464.976 216.842 462.501 219.299 459.448 219.299H268.744C265.692 219.299 263.217 216.842 263.217 213.811Z" fill="white"/>
<path d="M366.398 188.2C366.398 185.169 368.873 182.712 371.926 182.712H581.976C585.029 182.712 587.504 185.169 587.504 188.2C587.504 191.231 585.029 193.688 581.976 193.688H371.926C368.873 193.688 366.398 191.231 366.398 188.2Z" fill="white"/>
<path fill-rule="evenodd" clip-rule="evenodd" d="M69.7482 240.336H45.7951V264.117H69.7482V240.336ZM43.0312 237.592V266.861H72.512V237.592H43.0312Z" fill="#38BDF8"/>
<g clip-path="url(#clip1_176_13705)">
<rect x="658.441" y="116.856" width="184.255" height="250.619" rx="20" fill="white"/>
<path d="M781.179 367.691C781.179 431.109 729.826 482.52 666.478 482.52C603.131 482.52 551.777 431.109 551.777 367.691C551.777 304.273 603.131 252.862 666.478 252.862C729.826 252.862 781.179 304.273 781.179 367.691Z" fill="#FACC15"/>
<path fill-rule="evenodd" clip-rule="evenodd" d="M868.274 214.461L808.342 154.958L748.409 214.461L808.342 273.963L868.274 214.461ZM808.342 149.784L743.198 214.461L808.342 279.137L873.486 214.461L808.342 149.784Z" fill="#BAE6FD"/>
</g>
<path d="M57.7716 297.96L72.512 323.308H43.0312L57.7716 297.96Z" fill="#7DD3FC"/>
<rect x="872.178" y="116.856" width="184.255" height="184.763" rx="20" fill="white"/>
<path fill-rule="evenodd" clip-rule="evenodd" d="M955.062 254.62C973.432 254.62 988.198 239.972 988.198 222.055C988.198 204.138 973.432 189.49 955.062 189.49C936.692 189.49 921.926 204.138 921.926 222.055C921.926 239.972 936.692 254.62 955.062 254.62ZM955.062 263.767C978.45 263.767 997.411 245.092 997.411 222.055C997.411 199.018 978.45 180.343 955.062 180.343C931.673 180.343 912.713 199.018 912.713 222.055C912.713 245.092 931.673 263.767 955.062 263.767Z" fill="#BAE6FD"/>
<path d="M974.31 208.852L986.494 163.709L1019.78 196.756L974.31 208.852Z" fill="#FACC15"/>
<g clip-path="url(#clip2_176_13705)">
<rect x="658.441" y="396.744" width="184.255" height="279.888" rx="20" fill="white"/>
<path fill-rule="evenodd" clip-rule="evenodd" d="M831.181 712.304C882.825 712.304 924.69 670.739 924.69 619.465C924.69 568.192 882.825 526.627 831.181 526.627C779.537 526.627 737.672 568.192 737.672 619.465C737.672 670.739 779.537 712.304 831.181 712.304ZM831.181 721.451C887.913 721.451 933.903 675.79 933.903 619.465C933.903 563.14 887.913 517.48 831.181 517.48C774.449 517.48 728.459 563.14 728.459 619.465C728.459 675.79 774.449 721.451 831.181 721.451Z" fill="#FACC15"/>
<path d="M755.175 480.186C755.175 497.475 740.945 511.491 723.391 511.491C705.838 511.491 691.607 497.475 691.607 480.186C691.607 462.896 705.838 448.88 723.391 448.88C740.945 448.88 755.175 462.896 755.175 480.186Z" fill="#BAE6FD"/>
<path fill-rule="evenodd" clip-rule="evenodd" d="M723.391 508.747C739.439 508.747 752.411 495.939 752.411 480.186C752.411 464.432 739.439 451.624 723.391 451.624C707.343 451.624 694.371 464.432 694.371 480.186C694.371 495.939 707.343 508.747 723.391 508.747ZM723.391 511.491C740.945 511.491 755.175 497.475 755.175 480.186C755.175 462.896 740.945 448.88 723.391 448.88C705.838 448.88 691.607 462.896 691.607 480.186C691.607 497.475 705.838 511.491 723.391 511.491Z" fill="#BAE6FD"/>
</g>
<g clip-path="url(#clip3_176_13705)">
<rect x="872.178" y="330.888" width="184.255" height="312.816" rx="20" fill="white"/>
<path d="M1098.81 556.353C1098.81 578.833 1080.66 597.056 1058.27 597.056C1035.89 597.056 1017.74 578.833 1017.74 556.353C1017.74 533.874 1035.89 515.651 1058.27 515.651C1080.66 515.651 1098.81 533.874 1098.81 556.353Z" fill="white"/>
<path fill-rule="evenodd" clip-rule="evenodd" d="M1058.27 594.312C1079.11 594.312 1096.05 577.347 1096.05 556.353C1096.05 535.36 1079.11 518.395 1058.27 518.395C1037.44 518.395 1020.5 535.36 1020.5 556.353C1020.5 577.347 1037.44 594.312 1058.27 594.312ZM1058.27 597.056C1080.66 597.056 1098.81 578.833 1098.81 556.353C1098.81 533.874 1080.66 515.651 1058.27 515.651C1035.89 515.651 1017.74 533.874 1017.74 556.353C1017.74 578.833 1035.89 597.056 1058.27 597.056Z" fill="#BAE6FD"/>
<path d="M1025.11 441.105C1025.11 471.162 1000.77 495.528 970.754 495.528C940.734 495.528 916.398 471.162 916.398 441.105C916.398 411.049 940.734 386.683 970.754 386.683C1000.77 386.683 1025.11 411.049 1025.11 441.105Z" fill="#BAE6FD"/>
<path d="M906.264 545.835L908.863 553.259L916.778 553.419L910.47 558.167L912.762 565.69L906.264 561.201L899.766 565.69L902.059 558.167L895.75 553.419L903.665 553.259L906.264 545.835Z" fill="#FACC15"/>
<path d="M944.036 545.835L946.635 553.259L954.55 553.419L948.241 558.167L950.534 565.69L944.036 561.201L937.538 565.69L939.83 558.167L933.521 553.419L941.436 553.259L944.036 545.835Z" fill="#FACC15"/>
<path d="M981.809 545.835L984.408 553.259L992.323 553.419L986.015 558.167L988.307 565.69L981.809 561.201L975.311 565.69L977.603 558.167L971.295 553.419L979.21 553.259L981.809 545.835Z" fill="#FACC15"/>
<path d="M1019.58 545.835L1022.18 553.259L1030.09 553.419L1023.79 558.167L1026.08 565.69L1019.58 561.201L1013.08 565.69L1015.37 558.167L1009.07 553.419L1016.98 553.259L1019.58 545.835Z" fill="#FACC15"/>
<path d="M1057.35 545.835L1059.95 553.259L1067.87 553.419L1061.56 558.167L1063.85 565.69L1057.35 561.201L1050.85 565.69L1053.15 558.167L1046.84 553.419L1054.75 553.259L1057.35 545.835Z" fill="#FACC15"/>
</g>
</g>
<rect x="22.5" y="12.5" width="1095" height="722" rx="17.5" stroke="#0F172A" stroke-width="5"/>
</g>
<defs>
<filter id="filter0_dd_176_13705" x="0" y="0" width="1140" height="777" filterUnits="userSpaceOnUse" color-interpolation-filters="sRGB">
<feFlood flood-opacity="0" result="BackgroundImageFix"/>
<feColorMatrix in="SourceAlpha" type="matrix" values="0 0 0 0 0 0 0 0 0 0 0 0 0 0 0 0 0 0 127 0" result="hardAlpha"/>
<feOffset/>
<feGaussianBlur stdDeviation="5"/>
<feColorMatrix type="matrix" values="0 0 0 0 0 0 0 0 0 0 0 0 0 0 0 0 0 0 0.07 0"/>
<feBlend mode="normal" in2="BackgroundImageFix" result="effect1_dropShadow_176_13705"/>
<feColorMatrix in="SourceAlpha" type="matrix" values="0 0 0 0 0 0 0 0 0 0 0 0 0 0 0 0 0 0 127 0" result="hardAlpha"/>
<feMorphology radius="5" operator="erode" in="SourceAlpha" result="effect2_dropShadow_176_13705"/>
<feOffset dy="20"/>
<feGaussianBlur stdDeviation="12.5"/>
<feColorMatrix type="matrix" values="0 0 0 0 0 0 0 0 0 0 0 0 0 0 0 0 0 0 0.1 0"/>
<feBlend mode="normal" in2="effect1_dropShadow_176_13705" result="effect2_dropShadow_176_13705"/>
<feBlend mode="normal" in="SourceGraphic" in2="effect2_dropShadow_176_13705" result="shape"/>
</filter>
<clipPath id="clip0_176_13705">
<rect x="20" y="10" width="1100" height="727" rx="20" fill="white"/>
</clipPath>
<clipPath id="clip1_176_13705">
<rect x="658.441" y="116.856" width="184.255" height="250.619" rx="20" fill="white"/>
</clipPath>
<clipPath id="clip2_176_13705">
<rect x="658.441" y="396.744" width="184.255" height="279.888" rx="20" fill="white"/>
</clipPath>
<clipPath id="clip3_176_13705">
<rect x="872.178" y="330.888" width="184.255" height="312.816" rx="20" fill="white"/>
</clipPath>
</defs>
</svg>
