<svg width="84" height="84" viewBox="0 0 84 84" fill="none" xmlns="http://www.w3.org/2000/svg">
<g clip-path="url(#clip0_178_23096)">
<path d="M76.9996 80.1818C76.9996 78.4246 78.4242 77 80.1815 77C81.9387 77 83.3633 78.4246 83.3633 80.1818C83.3633 81.9391 81.9387 83.3636 80.1815 83.3636C78.4242 83.3636 76.9996 81.9391 76.9996 80.1818Z" stroke="#701A75" stroke-width="0.715909" stroke-linecap="round" stroke-linejoin="round"/>
</g>
<g clip-path="url(#clip1_178_23096)">
<path d="M76.9996 64.9091C76.9996 63.1519 78.4242 61.7273 80.1815 61.7273C81.9387 61.7273 83.3633 63.1519 83.3633 64.9091C83.3633 66.6664 81.9387 68.0909 80.1815 68.0909C78.4242 68.0909 76.9996 66.6664 76.9996 64.9091Z" stroke="#701A75" stroke-width="0.715909" stroke-linecap="round" stroke-linejoin="round"/>
</g>
<g clip-path="url(#clip2_178_23096)">
<path d="M76.9996 49.6363C76.9996 47.879 78.4242 46.4545 80.1815 46.4545C81.9387 46.4545 83.3633 47.879 83.3633 49.6363C83.3633 51.3936 81.9387 52.8181 80.1815 52.8181C78.4242 52.8181 76.9996 51.3936 76.9996 49.6363Z" stroke="#701A75" stroke-width="0.715909" stroke-linecap="round" stroke-linejoin="round"/>
</g>
<g clip-path="url(#clip3_178_23096)">
<path d="M76.9996 34.3636C76.9996 32.6063 78.4242 31.1818 80.1815 31.1818C81.9387 31.1818 83.3633 32.6063 83.3633 34.3636C83.3633 36.1209 81.9387 37.5454 80.1815 37.5454C78.4242 37.5454 76.9996 36.1209 76.9996 34.3636Z" stroke="#701A75" stroke-width="0.715909" stroke-linecap="round" stroke-linejoin="round"/>
</g>
<g clip-path="url(#clip4_178_23096)">
<path d="M76.9996 19.0909C76.9996 17.3336 78.4242 15.9091 80.1815 15.9091C81.9387 15.9091 83.3633 17.3336 83.3633 19.0909C83.3633 20.8482 81.9387 22.2727 80.1815 22.2727C78.4242 22.2727 76.9996 20.8482 76.9996 19.0909Z" stroke="#701A75" stroke-width="0.715909" stroke-linecap="round" stroke-linejoin="round"/>
</g>
<g clip-path="url(#clip5_178_23096)">
<path d="M76.9996 3.81818C76.9996 2.06093 78.4242 0.636363 80.1815 0.636363C81.9387 0.636363 83.3633 2.06093 83.3633 3.81818C83.3633 5.57545 81.9387 7 80.1815 7C78.4242 7 76.9996 5.57545 76.9996 3.81818Z" stroke="#701A75" stroke-width="0.715909" stroke-linecap="round" stroke-linejoin="round"/>
</g>
<g clip-path="url(#clip6_178_23096)">
<path d="M61.7262 80.1818C61.7262 78.4246 63.1508 77 64.908 77C66.6653 77 68.0898 78.4246 68.0898 80.1818C68.0898 81.9391 66.6653 83.3636 64.908 83.3636C63.1508 83.3636 61.7262 81.9391 61.7262 80.1818Z" stroke="#701A75" stroke-width="0.715909" stroke-linecap="round" stroke-linejoin="round"/>
</g>
<g clip-path="url(#clip7_178_23096)">
<path d="M61.7262 64.9091C61.7262 63.1519 63.1508 61.7273 64.908 61.7273C66.6653 61.7273 68.0898 63.1519 68.0898 64.9091C68.0898 66.6664 66.6653 68.0909 64.908 68.0909C63.1508 68.0909 61.7262 66.6664 61.7262 64.9091Z" stroke="#701A75" stroke-width="0.715909" stroke-linecap="round" stroke-linejoin="round"/>
</g>
<g clip-path="url(#clip8_178_23096)">
<path d="M61.7262 49.6363C61.7262 47.879 63.1508 46.4545 64.908 46.4545C66.6653 46.4545 68.0898 47.879 68.0898 49.6363C68.0898 51.3936 66.6653 52.8181 64.908 52.8181C63.1508 52.8181 61.7262 51.3936 61.7262 49.6363Z" stroke="#701A75" stroke-width="0.715909" stroke-linecap="round" stroke-linejoin="round"/>
</g>
<g clip-path="url(#clip9_178_23096)">
<path d="M61.7262 34.3636C61.7262 32.6063 63.1508 31.1818 64.908 31.1818C66.6653 31.1818 68.0898 32.6063 68.0898 34.3636C68.0898 36.1209 66.6653 37.5454 64.908 37.5454C63.1508 37.5454 61.7262 36.1209 61.7262 34.3636Z" stroke="#701A75" stroke-width="0.715909" stroke-linecap="round" stroke-linejoin="round"/>
</g>
<g clip-path="url(#clip10_178_23096)">
<path d="M61.7262 19.0909C61.7262 17.3336 63.1508 15.9091 64.908 15.9091C66.6653 15.9091 68.0898 17.3336 68.0898 19.0909C68.0898 20.8482 66.6653 22.2727 64.908 22.2727C63.1508 22.2727 61.7262 20.8482 61.7262 19.0909Z" stroke="#701A75" stroke-width="0.715909" stroke-linecap="round" stroke-linejoin="round"/>
</g>
<g clip-path="url(#clip11_178_23096)">
<path d="M61.7262 3.81818C61.7262 2.06093 63.1508 0.636363 64.908 0.636363C66.6653 0.636363 68.0898 2.06093 68.0898 3.81818C68.0898 5.57545 66.6653 7 64.908 7C63.1508 7 61.7262 5.57545 61.7262 3.81818Z" stroke="#701A75" stroke-width="0.715909" stroke-linecap="round" stroke-linejoin="round"/>
</g>
<g clip-path="url(#clip12_178_23096)">
<path d="M46.4547 80.1818C46.4547 78.4246 47.8793 77 49.6365 77C51.3938 77 52.8184 78.4246 52.8184 80.1818C52.8184 81.9391 51.3938 83.3636 49.6365 83.3636C47.8793 83.3636 46.4547 81.9391 46.4547 80.1818Z" stroke="#701A75" stroke-width="0.715909" stroke-linecap="round" stroke-linejoin="round"/>
</g>
<g clip-path="url(#clip13_178_23096)">
<path d="M46.4547 64.9091C46.4547 63.1519 47.8793 61.7273 49.6365 61.7273C51.3938 61.7273 52.8184 63.1519 52.8184 64.9091C52.8184 66.6664 51.3938 68.0909 49.6365 68.0909C47.8793 68.0909 46.4547 66.6664 46.4547 64.9091Z" stroke="#701A75" stroke-width="0.715909" stroke-linecap="round" stroke-linejoin="round"/>
</g>
<g clip-path="url(#clip14_178_23096)">
<path d="M46.4547 49.6363C46.4547 47.879 47.8793 46.4545 49.6365 46.4545C51.3938 46.4545 52.8184 47.879 52.8184 49.6363C52.8184 51.3936 51.3938 52.8181 49.6365 52.8181C47.8793 52.8181 46.4547 51.3936 46.4547 49.6363Z" stroke="#701A75" stroke-width="0.715909" stroke-linecap="round" stroke-linejoin="round"/>
</g>
<g clip-path="url(#clip15_178_23096)">
<path d="M46.4547 34.3636C46.4547 32.6063 47.8793 31.1818 49.6365 31.1818C51.3938 31.1818 52.8184 32.6063 52.8184 34.3636C52.8184 36.1209 51.3938 37.5454 49.6365 37.5454C47.8793 37.5454 46.4547 36.1209 46.4547 34.3636Z" stroke="#701A75" stroke-width="0.715909" stroke-linecap="round" stroke-linejoin="round"/>
</g>
<g clip-path="url(#clip16_178_23096)">
<path d="M46.4547 19.0909C46.4547 17.3336 47.8793 15.9091 49.6365 15.9091C51.3938 15.9091 52.8184 17.3336 52.8184 19.0909C52.8184 20.8482 51.3938 22.2727 49.6365 22.2727C47.8793 22.2727 46.4547 20.8482 46.4547 19.0909Z" stroke="#701A75" stroke-width="0.715909" stroke-linecap="round" stroke-linejoin="round"/>
</g>
<g clip-path="url(#clip17_178_23096)">
<path d="M46.4547 3.81818C46.4547 2.06093 47.8793 0.636363 49.6365 0.636363C51.3938 0.636363 52.8184 2.06093 52.8184 3.81818C52.8184 5.57545 51.3938 7 49.6365 7C47.8793 7 46.4547 5.57545 46.4547 3.81818Z" stroke="#701A75" stroke-width="0.715909" stroke-linecap="round" stroke-linejoin="round"/>
</g>
<g clip-path="url(#clip18_178_23096)">
<path d="M31.1813 80.1818C31.1813 78.4246 32.6058 77 34.3631 77C36.1204 77 37.5449 78.4246 37.5449 80.1818C37.5449 81.9391 36.1204 83.3636 34.3631 83.3636C32.6058 83.3636 31.1813 81.9391 31.1813 80.1818Z" stroke="#701A75" stroke-width="0.715909" stroke-linecap="round" stroke-linejoin="round"/>
</g>
<g clip-path="url(#clip19_178_23096)">
<path d="M31.1813 64.9091C31.1813 63.1519 32.6058 61.7273 34.3631 61.7273C36.1204 61.7273 37.5449 63.1519 37.5449 64.9091C37.5449 66.6664 36.1204 68.0909 34.3631 68.0909C32.6058 68.0909 31.1813 66.6664 31.1813 64.9091Z" stroke="#701A75" stroke-width="0.715909" stroke-linecap="round" stroke-linejoin="round"/>
</g>
<g clip-path="url(#clip20_178_23096)">
<path d="M31.1813 49.6363C31.1813 47.879 32.6058 46.4545 34.3631 46.4545C36.1204 46.4545 37.5449 47.879 37.5449 49.6363C37.5449 51.3936 36.1204 52.8181 34.3631 52.8181C32.6058 52.8181 31.1813 51.3936 31.1813 49.6363Z" stroke="#701A75" stroke-width="0.715909" stroke-linecap="round" stroke-linejoin="round"/>
</g>
<g clip-path="url(#clip21_178_23096)">
<path d="M31.1813 34.3636C31.1813 32.6063 32.6058 31.1818 34.3631 31.1818C36.1204 31.1818 37.5449 32.6063 37.5449 34.3636C37.5449 36.1209 36.1204 37.5454 34.3631 37.5454C32.6058 37.5454 31.1813 36.1209 31.1813 34.3636Z" stroke="#701A75" stroke-width="0.715909" stroke-linecap="round" stroke-linejoin="round"/>
</g>
<g clip-path="url(#clip22_178_23096)">
<path d="M31.1813 19.0909C31.1813 17.3336 32.6058 15.9091 34.3631 15.9091C36.1204 15.9091 37.5449 17.3336 37.5449 19.0909C37.5449 20.8482 36.1204 22.2727 34.3631 22.2727C32.6058 22.2727 31.1813 20.8482 31.1813 19.0909Z" stroke="#701A75" stroke-width="0.715909" stroke-linecap="round" stroke-linejoin="round"/>
</g>
<g clip-path="url(#clip23_178_23096)">
<path d="M31.1813 3.81818C31.1813 2.06093 32.6058 0.636363 34.3631 0.636363C36.1204 0.636363 37.5449 2.06093 37.5449 3.81818C37.5449 5.57545 36.1204 7 34.3631 7C32.6058 7 31.1813 5.57545 31.1813 3.81818Z" stroke="#701A75" stroke-width="0.715909" stroke-linecap="round" stroke-linejoin="round"/>
</g>
<g clip-path="url(#clip24_178_23096)">
<path d="M15.9078 80.1818C15.9078 78.4246 17.3324 77 19.0897 77C20.8469 77 22.2715 78.4246 22.2715 80.1818C22.2715 81.9391 20.8469 83.3636 19.0897 83.3636C17.3324 83.3636 15.9078 81.9391 15.9078 80.1818Z" stroke="#701A75" stroke-width="0.715909" stroke-linecap="round" stroke-linejoin="round"/>
</g>
<g clip-path="url(#clip25_178_23096)">
<path d="M15.9078 64.9091C15.9078 63.1519 17.3324 61.7273 19.0897 61.7273C20.8469 61.7273 22.2715 63.1519 22.2715 64.9091C22.2715 66.6664 20.8469 68.0909 19.0897 68.0909C17.3324 68.0909 15.9078 66.6664 15.9078 64.9091Z" stroke="#701A75" stroke-width="0.715909" stroke-linecap="round" stroke-linejoin="round"/>
</g>
<g clip-path="url(#clip26_178_23096)">
<path d="M15.9078 49.6363C15.9078 47.879 17.3324 46.4545 19.0897 46.4545C20.8469 46.4545 22.2715 47.879 22.2715 49.6363C22.2715 51.3936 20.8469 52.8181 19.0897 52.8181C17.3324 52.8181 15.9078 51.3936 15.9078 49.6363Z" stroke="#701A75" stroke-width="0.715909" stroke-linecap="round" stroke-linejoin="round"/>
</g>
<g clip-path="url(#clip27_178_23096)">
<path d="M15.9078 34.3636C15.9078 32.6063 17.3324 31.1818 19.0897 31.1818C20.8469 31.1818 22.2715 32.6063 22.2715 34.3636C22.2715 36.1209 20.8469 37.5454 19.0897 37.5454C17.3324 37.5454 15.9078 36.1209 15.9078 34.3636Z" stroke="#701A75" stroke-width="0.715909" stroke-linecap="round" stroke-linejoin="round"/>
</g>
<g clip-path="url(#clip28_178_23096)">
<path d="M15.9078 19.0909C15.9078 17.3336 17.3324 15.9091 19.0897 15.9091C20.8469 15.9091 22.2715 17.3336 22.2715 19.0909C22.2715 20.8482 20.8469 22.2727 19.0897 22.2727C17.3324 22.2727 15.9078 20.8482 15.9078 19.0909Z" stroke="#701A75" stroke-width="0.715909" stroke-linecap="round" stroke-linejoin="round"/>
</g>
<g clip-path="url(#clip29_178_23096)">
<path d="M15.9078 3.81818C15.9078 2.06093 17.3324 0.636363 19.0897 0.636363C20.8469 0.636363 22.2715 2.06093 22.2715 3.81818C22.2715 5.57545 20.8469 7 19.0897 7C17.3324 7 15.9078 5.57545 15.9078 3.81818Z" stroke="#701A75" stroke-width="0.715909" stroke-linecap="round" stroke-linejoin="round"/>
</g>
<g clip-path="url(#clip30_178_23096)">
<path d="M0.636363 80.1818C0.636363 78.4246 2.06093 77 3.81818 77C5.57545 77 7 78.4246 7 80.1818C7 81.9391 5.57545 83.3636 3.81818 83.3636C2.06093 83.3636 0.636363 81.9391 0.636363 80.1818Z" stroke="#701A75" stroke-width="0.715909" stroke-linecap="round" stroke-linejoin="round"/>
</g>
<g clip-path="url(#clip31_178_23096)">
<path d="M0.636363 64.9091C0.636363 63.1519 2.06093 61.7273 3.81818 61.7273C5.57545 61.7273 7 63.1519 7 64.9091C7 66.6664 5.57545 68.0909 3.81818 68.0909C2.06093 68.0909 0.636363 66.6664 0.636363 64.9091Z" stroke="#701A75" stroke-width="0.715909" stroke-linecap="round" stroke-linejoin="round"/>
</g>
<g clip-path="url(#clip32_178_23096)">
<path d="M0.636363 49.6363C0.636363 47.879 2.06093 46.4545 3.81818 46.4545C5.57545 46.4545 7 47.879 7 49.6363C7 51.3936 5.57545 52.8181 3.81818 52.8181C2.06093 52.8181 0.636363 51.3936 0.636363 49.6363Z" stroke="#701A75" stroke-width="0.715909" stroke-linecap="round" stroke-linejoin="round"/>
</g>
<g clip-path="url(#clip33_178_23096)">
<path d="M0.636363 34.3636C0.636363 32.6063 2.06093 31.1818 3.81818 31.1818C5.57545 31.1818 7 32.6063 7 34.3636C7 36.1209 5.57545 37.5454 3.81818 37.5454C2.06093 37.5454 0.636363 36.1209 0.636363 34.3636Z" stroke="#701A75" stroke-width="0.715909" stroke-linecap="round" stroke-linejoin="round"/>
</g>
<g clip-path="url(#clip34_178_23096)">
<path d="M0.636363 19.0909C0.636363 17.3336 2.06093 15.9091 3.81818 15.9091C5.57545 15.9091 7 17.3336 7 19.0909C7 20.8482 5.57545 22.2727 3.81818 22.2727C2.06093 22.2727 0.636363 20.8482 0.636363 19.0909Z" stroke="#701A75" stroke-width="0.715909" stroke-linecap="round" stroke-linejoin="round"/>
</g>
<g clip-path="url(#clip35_178_23096)">
<path d="M0.636363 3.81818C0.636363 2.06093 2.06093 0.636363 3.81818 0.636363C5.57545 0.636363 7 2.06093 7 3.81818C7 5.57545 5.57545 7 3.81818 7C2.06093 7 0.636363 5.57545 0.636363 3.81818Z" stroke="#701A75" stroke-width="0.715909" stroke-linecap="round" stroke-linejoin="round"/>
</g>
<defs>
<clipPath id="clip0_178_23096">
<rect width="7.63636" height="7.63636" fill="white" transform="matrix(-4.37114e-08 -1 -1 4.37114e-08 84 84)"/>
</clipPath>
<clipPath id="clip1_178_23096">
<rect width="7.63636" height="7.63636" fill="white" transform="matrix(-4.37114e-08 -1 -1 4.37114e-08 84 68.7273)"/>
</clipPath>
<clipPath id="clip2_178_23096">
<rect width="7.63636" height="7.63636" fill="white" transform="matrix(-4.37114e-08 -1 -1 4.37114e-08 84 53.4546)"/>
</clipPath>
<clipPath id="clip3_178_23096">
<rect width="7.63636" height="7.63636" fill="white" transform="matrix(-4.37114e-08 -1 -1 4.37114e-08 84 38.1818)"/>
</clipPath>
<clipPath id="clip4_178_23096">
<rect width="7.63636" height="7.63636" fill="white" transform="matrix(-4.37114e-08 -1 -1 4.37114e-08 84 22.9091)"/>
</clipPath>
<clipPath id="clip5_178_23096">
<rect width="7.63636" height="7.63636" fill="white" transform="matrix(-4.37114e-08 -1 -1 4.37114e-08 84 7.63635)"/>
</clipPath>
<clipPath id="clip6_178_23096">
<rect width="7.63636" height="7.63636" fill="white" transform="matrix(-4.37114e-08 -1 -1 4.37114e-08 68.7266 84)"/>
</clipPath>
<clipPath id="clip7_178_23096">
<rect width="7.63636" height="7.63636" fill="white" transform="matrix(-4.37114e-08 -1 -1 4.37114e-08 68.7266 68.7273)"/>
</clipPath>
<clipPath id="clip8_178_23096">
<rect width="7.63636" height="7.63636" fill="white" transform="matrix(-4.37114e-08 -1 -1 4.37114e-08 68.7266 53.4546)"/>
</clipPath>
<clipPath id="clip9_178_23096">
<rect width="7.63636" height="7.63636" fill="white" transform="matrix(-4.37114e-08 -1 -1 4.37114e-08 68.7266 38.1818)"/>
</clipPath>
<clipPath id="clip10_178_23096">
<rect width="7.63636" height="7.63636" fill="white" transform="matrix(-4.37114e-08 -1 -1 4.37114e-08 68.7266 22.9091)"/>
</clipPath>
<clipPath id="clip11_178_23096">
<rect width="7.63636" height="7.63636" fill="white" transform="matrix(-4.37114e-08 -1 -1 4.37114e-08 68.7266 7.63635)"/>
</clipPath>
<clipPath id="clip12_178_23096">
<rect width="7.63636" height="7.63636" fill="white" transform="matrix(-4.37114e-08 -1 -1 4.37114e-08 53.4551 84)"/>
</clipPath>
<clipPath id="clip13_178_23096">
<rect width="7.63636" height="7.63636" fill="white" transform="matrix(-4.37114e-08 -1 -1 4.37114e-08 53.4551 68.7273)"/>
</clipPath>
<clipPath id="clip14_178_23096">
<rect width="7.63636" height="7.63636" fill="white" transform="matrix(-4.37114e-08 -1 -1 4.37114e-08 53.4551 53.4546)"/>
</clipPath>
<clipPath id="clip15_178_23096">
<rect width="7.63636" height="7.63636" fill="white" transform="matrix(-4.37114e-08 -1 -1 4.37114e-08 53.4551 38.1818)"/>
</clipPath>
<clipPath id="clip16_178_23096">
<rect width="7.63636" height="7.63636" fill="white" transform="matrix(-4.37114e-08 -1 -1 4.37114e-08 53.4551 22.9091)"/>
</clipPath>
<clipPath id="clip17_178_23096">
<rect width="7.63636" height="7.63636" fill="white" transform="matrix(-4.37114e-08 -1 -1 4.37114e-08 53.4551 7.63635)"/>
</clipPath>
<clipPath id="clip18_178_23096">
<rect width="7.63636" height="7.63636" fill="white" transform="matrix(-4.37114e-08 -1 -1 4.37114e-08 38.1816 84)"/>
</clipPath>
<clipPath id="clip19_178_23096">
<rect width="7.63636" height="7.63636" fill="white" transform="matrix(-4.37114e-08 -1 -1 4.37114e-08 38.1816 68.7273)"/>
</clipPath>
<clipPath id="clip20_178_23096">
<rect width="7.63636" height="7.63636" fill="white" transform="matrix(-4.37114e-08 -1 -1 4.37114e-08 38.1816 53.4546)"/>
</clipPath>
<clipPath id="clip21_178_23096">
<rect width="7.63636" height="7.63636" fill="white" transform="matrix(-4.37114e-08 -1 -1 4.37114e-08 38.1816 38.1818)"/>
</clipPath>
<clipPath id="clip22_178_23096">
<rect width="7.63636" height="7.63636" fill="white" transform="matrix(-4.37114e-08 -1 -1 4.37114e-08 38.1816 22.9091)"/>
</clipPath>
<clipPath id="clip23_178_23096">
<rect width="7.63636" height="7.63636" fill="white" transform="matrix(-4.37114e-08 -1 -1 4.37114e-08 38.1816 7.63635)"/>
</clipPath>
<clipPath id="clip24_178_23096">
<rect width="7.63636" height="7.63636" fill="white" transform="matrix(-4.37114e-08 -1 -1 4.37114e-08 22.9082 84)"/>
</clipPath>
<clipPath id="clip25_178_23096">
<rect width="7.63636" height="7.63636" fill="white" transform="matrix(-4.37114e-08 -1 -1 4.37114e-08 22.9082 68.7273)"/>
</clipPath>
<clipPath id="clip26_178_23096">
<rect width="7.63636" height="7.63636" fill="white" transform="matrix(-4.37114e-08 -1 -1 4.37114e-08 22.9082 53.4546)"/>
</clipPath>
<clipPath id="clip27_178_23096">
<rect width="7.63636" height="7.63636" fill="white" transform="matrix(-4.37114e-08 -1 -1 4.37114e-08 22.9082 38.1818)"/>
</clipPath>
<clipPath id="clip28_178_23096">
<rect width="7.63636" height="7.63636" fill="white" transform="matrix(-4.37114e-08 -1 -1 4.37114e-08 22.9082 22.9091)"/>
</clipPath>
<clipPath id="clip29_178_23096">
<rect width="7.63636" height="7.63636" fill="white" transform="matrix(-4.37114e-08 -1 -1 4.37114e-08 22.9082 7.63635)"/>
</clipPath>
<clipPath id="clip30_178_23096">
<rect width="7.63636" height="7.63636" fill="white" transform="matrix(-4.37114e-08 -1 -1 4.37114e-08 7.63672 84)"/>
</clipPath>
<clipPath id="clip31_178_23096">
<rect width="7.63636" height="7.63636" fill="white" transform="matrix(-4.37114e-08 -1 -1 4.37114e-08 7.63672 68.7273)"/>
</clipPath>
<clipPath id="clip32_178_23096">
<rect width="7.63636" height="7.63636" fill="white" transform="matrix(-4.37114e-08 -1 -1 4.37114e-08 7.63672 53.4546)"/>
</clipPath>
<clipPath id="clip33_178_23096">
<rect width="7.63636" height="7.63636" fill="white" transform="matrix(-4.37114e-08 -1 -1 4.37114e-08 7.63672 38.1818)"/>
</clipPath>
<clipPath id="clip34_178_23096">
<rect width="7.63636" height="7.63636" fill="white" transform="matrix(-4.37114e-08 -1 -1 4.37114e-08 7.63672 22.9091)"/>
</clipPath>
<clipPath id="clip35_178_23096">
<rect width="7.63636" height="7.63636" fill="white" transform="matrix(-4.37114e-08 -1 -1 4.37114e-08 7.63672 7.63635)"/>
</clipPath>
</defs>
</svg>
