<svg width="600" height="622" viewBox="0 0 600 622" fill="none" xmlns="http://www.w3.org/2000/svg">
<path d="M477.184 489.694C470.446 529.488 467.077 549.385 453.103 561.193C439.128 573 418.948 573 378.588 573H204C156.86 573 133.289 573 118.645 558.355C104 543.711 104 520.14 104 473V157.303C104 102.398 104 74.9462 121.722 59.9658C139.444 44.9855 166.513 49.5566 220.651 58.699L442.353 96.138C488.854 103.991 512.104 107.917 524.106 124.803C536.108 141.69 532.171 164.939 524.298 211.436L477.184 489.694Z" fill="#701A75"/>
<path d="M43.8645 241.041C51.0256 201.815 54.6062 182.202 68.5167 170.601C82.4272 159 102.364 159 142.239 159H230C277.14 159 300.711 159 315.355 173.645C330 188.289 330 211.86 330 259V416.119C330 470.429 330 497.584 312.505 512.552C295.01 527.52 268.182 523.318 214.526 514.914L101.318 497.183C53.6609 489.719 29.8322 485.987 17.6276 468.798C5.42295 451.61 9.75457 427.883 18.4178 380.429L43.8645 241.041Z" fill="#FBBF24"/>
<g clip-path="url(#clip0_178_22905)">
<path d="M93.515 289.95C93.6571 289.902 93.6909 289.716 93.575 289.621L88.8163 285.721C88.7038 285.629 88.5336 285.692 88.5075 285.835L87.4371 291.703C87.411 291.846 87.5482 291.965 87.686 291.918L93.515 289.95Z" stroke="#701A75" stroke-width="0.715909" stroke-linecap="round" stroke-linejoin="round"/>
</g>
<g clip-path="url(#clip1_178_22905)">
<path d="M96.2572 274.925C96.3993 274.877 96.4331 274.691 96.3172 274.596L91.5585 270.696C91.446 270.604 91.2758 270.667 91.2497 270.81L90.1793 276.678C90.1532 276.821 90.2904 276.94 90.4282 276.893L96.2572 274.925Z" stroke="#701A75" stroke-width="0.715909" stroke-linecap="round" stroke-linejoin="round"/>
</g>
<g clip-path="url(#clip2_178_22905)">
<path d="M98.9975 259.9C99.1395 259.852 99.1734 259.666 99.0574 259.571L94.2988 255.672C94.1862 255.579 94.016 255.642 93.9899 255.785L92.9195 261.653C92.8934 261.796 93.0306 261.915 93.1684 261.868L98.9975 259.9Z" stroke="#701A75" stroke-width="0.715909" stroke-linecap="round" stroke-linejoin="round"/>
</g>
<g clip-path="url(#clip3_178_22905)">
<path d="M101.738 244.875C101.88 244.827 101.914 244.641 101.798 244.546L97.039 240.647C96.9265 240.554 96.7563 240.617 96.7302 240.76L95.6598 246.628C95.6337 246.771 95.7708 246.89 95.9087 246.844L101.738 244.875Z" stroke="#701A75" stroke-width="0.715909" stroke-linecap="round" stroke-linejoin="round"/>
</g>
<g clip-path="url(#clip4_178_22905)">
<path d="M104.478 229.85C104.62 229.802 104.654 229.617 104.538 229.522L99.7792 225.622C99.6667 225.53 99.4965 225.592 99.4704 225.735L98.4 231.604C98.3739 231.747 98.5111 231.865 98.6489 231.819L104.478 229.85Z" stroke="#701A75" stroke-width="0.715909" stroke-linecap="round" stroke-linejoin="round"/>
</g>
<g clip-path="url(#clip5_178_22905)">
<path d="M107.218 214.825C107.36 214.777 107.394 214.592 107.278 214.497L102.519 210.597C102.407 210.505 102.237 210.567 102.211 210.711L101.14 216.579C101.114 216.722 101.251 216.84 101.389 216.794L107.218 214.825Z" stroke="#701A75" stroke-width="0.715909" stroke-linecap="round" stroke-linejoin="round"/>
</g>
<g clip-path="url(#clip6_178_22905)">
<path d="M78.4916 287.209C78.6337 287.161 78.6675 286.975 78.5515 286.88L73.7929 282.981C73.6804 282.888 73.5102 282.951 73.4841 283.094L72.4137 288.962C72.3876 289.105 72.5247 289.224 72.6626 289.177L78.4916 287.209Z" stroke="#701A75" stroke-width="0.715909" stroke-linecap="round" stroke-linejoin="round"/>
</g>
<g clip-path="url(#clip7_178_22905)">
<path d="M81.2318 272.184C81.3739 272.136 81.4077 271.951 81.2918 271.856L76.5331 267.956C76.4206 267.864 76.2504 267.926 76.2243 268.069L75.1539 273.937C75.1278 274.081 75.265 274.199 75.4028 274.153L81.2318 272.184Z" stroke="#701A75" stroke-width="0.715909" stroke-linecap="round" stroke-linejoin="round"/>
</g>
<g clip-path="url(#clip8_178_22905)">
<path d="M83.9721 257.159C84.1141 257.111 84.148 256.926 84.032 256.831L79.2734 252.931C79.1608 252.839 78.9906 252.901 78.9645 253.044L77.8941 258.913C77.868 259.056 78.0052 259.174 78.143 259.128L83.9721 257.159Z" stroke="#701A75" stroke-width="0.715909" stroke-linecap="round" stroke-linejoin="round"/>
</g>
<g clip-path="url(#clip9_178_22905)">
<path d="M86.7123 242.134C86.8544 242.086 86.8882 241.901 86.7722 241.806L82.0136 237.906C81.9011 237.814 81.7309 237.876 81.7048 238.019L80.6344 243.888C80.6083 244.031 80.7454 244.149 80.8833 244.103L86.7123 242.134Z" stroke="#701A75" stroke-width="0.715909" stroke-linecap="round" stroke-linejoin="round"/>
</g>
<g clip-path="url(#clip10_178_22905)">
<path d="M89.4525 227.11C89.5946 227.062 89.6284 226.876 89.5125 226.781L84.7538 222.881C84.6413 222.789 84.4711 222.852 84.445 222.995L83.3746 228.863C83.3485 229.006 83.4857 229.125 83.6235 229.078L89.4525 227.11Z" stroke="#701A75" stroke-width="0.715909" stroke-linecap="round" stroke-linejoin="round"/>
</g>
<g clip-path="url(#clip11_178_22905)">
<path d="M92.1947 212.085C92.3368 212.037 92.3706 211.851 92.2547 211.756L87.496 207.857C87.3835 207.764 87.2133 207.827 87.1872 207.97L86.1168 213.838C86.0907 213.981 86.2279 214.1 86.3657 214.053L92.1947 212.085Z" stroke="#701A75" stroke-width="0.715909" stroke-linecap="round" stroke-linejoin="round"/>
</g>
<g clip-path="url(#clip12_178_22905)">
<path d="M63.4662 284.468C63.6083 284.42 63.6421 284.235 63.5261 284.14L58.7675 280.24C58.655 280.148 58.4848 280.21 58.4587 280.354L57.3883 286.222C57.3622 286.365 57.4994 286.484 57.6372 286.437L63.4662 284.468Z" stroke="#701A75" stroke-width="0.715909" stroke-linecap="round" stroke-linejoin="round"/>
</g>
<g clip-path="url(#clip13_178_22905)">
<path d="M66.2064 269.443C66.3485 269.395 66.3823 269.21 66.2664 269.115L61.5077 265.215C61.3952 265.123 61.225 265.185 61.1989 265.328L60.1285 271.197C60.1024 271.34 60.2396 271.458 60.3774 271.412L66.2064 269.443Z" stroke="#701A75" stroke-width="0.715909" stroke-linecap="round" stroke-linejoin="round"/>
</g>
<g clip-path="url(#clip14_178_22905)">
<path d="M68.9467 254.419C69.0887 254.371 69.1226 254.185 69.0066 254.09L64.248 250.19C64.1355 250.098 63.9653 250.161 63.9391 250.304L62.8687 256.172C62.8426 256.315 62.9798 256.434 63.1177 256.387L68.9467 254.419Z" stroke="#701A75" stroke-width="0.715909" stroke-linecap="round" stroke-linejoin="round"/>
</g>
<g clip-path="url(#clip15_178_22905)">
<path d="M71.6869 239.394C71.829 239.346 71.8628 239.16 71.7468 239.065L66.9882 235.166C66.8757 235.073 66.7055 235.136 66.6794 235.279L65.609 241.147C65.5829 241.29 65.7201 241.409 65.8579 241.362L71.6869 239.394Z" stroke="#701A75" stroke-width="0.715909" stroke-linecap="round" stroke-linejoin="round"/>
</g>
<g clip-path="url(#clip16_178_22905)">
<path d="M74.4291 224.369C74.5712 224.321 74.605 224.136 74.489 224.04L69.7304 220.141C69.6179 220.048 69.4477 220.111 69.4216 220.254L68.3512 226.122C68.3251 226.266 68.4622 226.384 68.6001 226.338L74.4291 224.369Z" stroke="#701A75" stroke-width="0.715909" stroke-linecap="round" stroke-linejoin="round"/>
</g>
<g clip-path="url(#clip17_178_22905)">
<path d="M77.1693 209.344C77.3114 209.296 77.3452 209.111 77.2293 209.016L72.4706 205.116C72.3581 205.024 72.1879 205.086 72.1618 205.229L71.0914 211.098C71.0653 211.241 71.2025 211.359 71.3403 211.313L77.1693 209.344Z" stroke="#701A75" stroke-width="0.715909" stroke-linecap="round" stroke-linejoin="round"/>
</g>
<g clip-path="url(#clip18_178_22905)">
<path d="M48.4408 281.728C48.5829 281.68 48.6167 281.494 48.5008 281.399L43.7421 277.499C43.6296 277.407 43.4594 277.47 43.4333 277.613L42.3629 283.481C42.3368 283.624 42.474 283.743 42.6118 283.696L48.4408 281.728Z" stroke="#701A75" stroke-width="0.715909" stroke-linecap="round" stroke-linejoin="round"/>
</g>
<g clip-path="url(#clip19_178_22905)">
<path d="M51.1811 266.703C51.3231 266.655 51.357 266.469 51.241 266.374L46.4823 262.475C46.3698 262.382 46.1996 262.445 46.1735 262.588L45.1031 268.456C45.077 268.599 45.2142 268.718 45.352 268.671L51.1811 266.703Z" stroke="#701A75" stroke-width="0.715909" stroke-linecap="round" stroke-linejoin="round"/>
</g>
<g clip-path="url(#clip20_178_22905)">
<path d="M53.9232 251.678C54.0653 251.63 54.0991 251.445 53.9832 251.35L49.2245 247.45C49.112 247.358 48.9418 247.42 48.9157 247.563L47.8453 253.431C47.8192 253.575 47.9564 253.693 48.0942 253.647L53.9232 251.678Z" stroke="#701A75" stroke-width="0.715909" stroke-linecap="round" stroke-linejoin="round"/>
</g>
<g clip-path="url(#clip21_178_22905)">
<path d="M56.6635 236.653C56.8055 236.605 56.8394 236.42 56.7234 236.325L51.9648 232.425C51.8523 232.333 51.682 232.395 51.6559 232.538L50.5855 238.407C50.5594 238.55 50.6966 238.668 50.8344 238.622L56.6635 236.653Z" stroke="#701A75" stroke-width="0.715909" stroke-linecap="round" stroke-linejoin="round"/>
</g>
<g clip-path="url(#clip22_178_22905)">
<path d="M59.4037 221.628C59.5458 221.58 59.5796 221.395 59.4636 221.3L54.705 217.4C54.5925 217.308 54.4223 217.37 54.3962 217.513L53.3258 223.382C53.2997 223.525 53.4369 223.643 53.5747 223.597L59.4037 221.628Z" stroke="#701A75" stroke-width="0.715909" stroke-linecap="round" stroke-linejoin="round"/>
</g>
<g clip-path="url(#clip23_178_22905)">
<path d="M62.1439 206.604C62.286 206.556 62.3198 206.37 62.2039 206.275L57.4452 202.375C57.3327 202.283 57.1625 202.346 57.1364 202.489L56.066 208.357C56.0399 208.5 56.1771 208.619 56.3149 208.572L62.1439 206.604Z" stroke="#701A75" stroke-width="0.715909" stroke-linecap="round" stroke-linejoin="round"/>
</g>
<g clip-path="url(#clip24_178_22905)">
<path d="M33.4174 278.987C33.5595 278.939 33.5933 278.754 33.4773 278.658L28.7187 274.759C28.6062 274.667 28.436 274.729 28.4099 274.872L27.3394 280.74C27.3133 280.884 27.4505 281.002 27.5884 280.956L33.4174 278.987Z" stroke="#701A75" stroke-width="0.715909" stroke-linecap="round" stroke-linejoin="round"/>
</g>
<g clip-path="url(#clip25_178_22905)">
<path d="M36.1576 263.962C36.2997 263.914 36.3335 263.729 36.2175 263.634L31.4589 259.734C31.3464 259.642 31.1762 259.704 31.1501 259.847L30.0797 265.716C30.0536 265.859 30.1908 265.977 30.3286 265.931L36.1576 263.962Z" stroke="#701A75" stroke-width="0.715909" stroke-linecap="round" stroke-linejoin="round"/>
</g>
<g clip-path="url(#clip26_178_22905)">
<path d="M38.8979 248.937C39.0399 248.889 39.0738 248.704 38.9578 248.609L34.1991 244.709C34.0866 244.617 33.9164 244.679 33.8903 244.823L32.8199 250.691C32.7938 250.834 32.931 250.953 33.0688 250.906L38.8979 248.937Z" stroke="#701A75" stroke-width="0.715909" stroke-linecap="round" stroke-linejoin="round"/>
</g>
<g clip-path="url(#clip27_178_22905)">
<path d="M41.6381 233.913C41.7802 233.865 41.814 233.679 41.698 233.584L36.9394 229.684C36.8269 229.592 36.6567 229.655 36.6306 229.798L35.5602 235.666C35.534 235.809 35.6712 235.928 35.8091 235.881L41.6381 233.913Z" stroke="#701A75" stroke-width="0.715909" stroke-linecap="round" stroke-linejoin="round"/>
</g>
<g clip-path="url(#clip28_178_22905)">
<path d="M44.3783 218.888C44.5204 218.84 44.5542 218.654 44.4383 218.559L39.6796 214.66C39.5671 214.567 39.3969 214.63 39.3708 214.773L38.3004 220.641C38.2743 220.784 38.4115 220.903 38.5493 220.856L44.3783 218.888Z" stroke="#701A75" stroke-width="0.715909" stroke-linecap="round" stroke-linejoin="round"/>
</g>
<g clip-path="url(#clip29_178_22905)">
<path d="M47.1186 203.863C47.2606 203.815 47.2945 203.63 47.1785 203.534L42.4198 199.635C42.3073 199.543 42.1371 199.605 42.111 199.748L41.0406 205.616C41.0145 205.76 41.1517 205.878 41.2895 205.832L47.1186 203.863Z" stroke="#701A75" stroke-width="0.715909" stroke-linecap="round" stroke-linejoin="round"/>
</g>
<g clip-path="url(#clip30_178_22905)">
<path d="M18.39 276.247C18.5321 276.199 18.5659 276.013 18.45 275.918L13.6913 272.018C13.5788 271.926 13.4086 271.989 13.3825 272.132L12.3121 278C12.286 278.143 12.4232 278.262 12.561 278.215L18.39 276.247Z" stroke="#701A75" stroke-width="0.715909" stroke-linecap="round" stroke-linejoin="round"/>
</g>
<g clip-path="url(#clip31_178_22905)">
<path d="M21.1303 261.222C21.2723 261.174 21.3062 260.988 21.1902 260.893L16.4316 256.993C16.319 256.901 16.1488 256.964 16.1227 257.107L15.0523 262.975C15.0262 263.118 15.1634 263.237 15.3012 263.19L21.1303 261.222Z" stroke="#701A75" stroke-width="0.715909" stroke-linecap="round" stroke-linejoin="round"/>
</g>
<g clip-path="url(#clip32_178_22905)">
<path d="M23.8705 246.197C24.0126 246.149 24.0464 245.964 23.9304 245.868L19.1718 241.969C19.0593 241.876 18.8891 241.939 18.863 242.082L17.7926 247.95C17.7665 248.094 17.9036 248.212 18.0415 248.166L23.8705 246.197Z" stroke="#701A75" stroke-width="0.715909" stroke-linecap="round" stroke-linejoin="round"/>
</g>
<g clip-path="url(#clip33_178_22905)">
<path d="M26.6107 231.172C26.7528 231.124 26.7866 230.939 26.6707 230.844L21.912 226.944C21.7995 226.852 21.6293 226.914 21.6032 227.057L20.5328 232.925C20.5067 233.069 20.6439 233.187 20.7817 233.141L26.6107 231.172Z" stroke="#701A75" stroke-width="0.715909" stroke-linecap="round" stroke-linejoin="round"/>
</g>
<g clip-path="url(#clip34_178_22905)">
<path d="M29.3529 216.147C29.495 216.099 29.5288 215.914 29.4129 215.819L24.6542 211.919C24.5417 211.827 24.3715 211.889 24.3454 212.032L23.275 217.901C23.2489 218.044 23.3861 218.162 23.5239 218.116L29.3529 216.147Z" stroke="#701A75" stroke-width="0.715909" stroke-linecap="round" stroke-linejoin="round"/>
</g>
<g clip-path="url(#clip35_178_22905)">
<path d="M32.0932 201.123C32.2352 201.075 32.2691 200.889 32.1531 200.794L27.3945 196.894C27.2819 196.802 27.1117 196.865 27.0856 197.008L26.0152 202.876C25.9891 203.019 26.1263 203.138 26.2641 203.091L32.0932 201.123Z" stroke="#701A75" stroke-width="0.715909" stroke-linecap="round" stroke-linejoin="round"/>
</g>
<g clip-path="url(#clip36_178_22905)">
<path d="M160.547 11.9615H439.453V610.038H160.547V11.9615Z" fill="#E0F2FE"/>
<path d="M186.047 427.426C186.047 418.618 193.182 411.477 201.984 411.477H398.016C406.818 411.477 413.953 418.618 413.953 427.426V551.826C413.953 560.634 406.818 567.774 398.016 567.774H201.984C193.182 567.774 186.047 560.634 186.047 551.826V427.426Z" fill="white"/>
<mask id="mask0_178_22905" style="mask-type:alpha" maskUnits="userSpaceOnUse" x="186" y="411" width="228" height="157">
<path d="M186.047 427.426C186.047 418.618 193.182 411.477 201.984 411.477H398.016C406.818 411.477 413.953 418.618 413.953 427.426V551.826C413.953 560.634 406.818 567.774 398.016 567.774H201.984C193.182 567.774 186.047 560.634 186.047 551.826V427.426Z" fill="white"/>
</mask>
<g mask="url(#mask0_178_22905)">
<path d="M357.375 463.709C357.375 472.297 350.418 479.259 341.836 479.259C333.254 479.259 326.297 472.297 326.297 463.709C326.297 455.121 333.254 448.159 341.836 448.159C350.418 448.159 357.375 455.121 357.375 463.709Z" fill="#FACC15"/>
<path d="M304.781 441.381C304.781 477.274 275.704 506.372 239.836 506.372C203.968 506.372 174.891 477.274 174.891 441.381C174.891 405.487 203.968 376.39 239.836 376.39C275.704 376.39 304.781 405.487 304.781 441.381Z" fill="white"/>
<path fill-rule="evenodd" clip-rule="evenodd" d="M239.836 498.398C271.303 498.398 296.812 472.87 296.812 441.381C296.812 409.891 271.303 384.364 239.836 384.364C208.369 384.364 182.859 409.891 182.859 441.381C182.859 472.87 208.369 498.398 239.836 498.398ZM239.836 506.372C275.704 506.372 304.781 477.274 304.781 441.381C304.781 405.487 275.704 376.39 239.836 376.39C203.968 376.39 174.891 405.487 174.891 441.381C174.891 477.274 203.968 506.372 239.836 506.372Z" fill="#E0F2FE"/>
</g>
<path d="M413.953 587.71L273.703 587.71L413.953 453.741L413.953 587.71Z" fill="#BAE6FD"/>
<path d="M186.047 381.174C186.047 378.532 188.188 376.39 190.828 376.39H305.578C308.219 376.39 310.359 378.532 310.359 381.174C310.359 383.817 308.219 385.959 305.578 385.959H190.828C188.188 385.959 186.047 383.817 186.047 381.174Z" fill="white"/>
<mask id="path-49-inside-1_178_22905" fill="white">
<path d="M160.547 533.485H439.453V610.038H160.547V533.485Z"/>
</mask>
<path d="M160.547 533.485H439.453V610.038H160.547V533.485Z" fill="#E0F2FE"/>
<path fill-rule="evenodd" clip-rule="evenodd" d="M199.243 556.212C199.809 556.235 200.281 556.652 200.374 557.211L204.284 580.685L207.608 569.041C207.752 568.536 208.208 568.185 208.732 568.173C209.256 568.162 209.726 568.493 209.892 568.991L212.01 575.35H215.93C216.59 575.35 217.125 575.885 217.125 576.546C217.125 577.207 216.59 577.742 215.93 577.742H211.148C210.634 577.742 210.177 577.413 210.014 576.924L208.846 573.415L205.126 586.444C204.972 586.982 204.467 587.341 203.909 587.31C203.351 587.278 202.889 586.864 202.798 586.312L198.961 563.277L195.574 576.836C195.441 577.369 194.963 577.742 194.414 577.742H189.633C188.973 577.742 188.438 577.207 188.438 576.546C188.438 575.885 188.973 575.35 189.633 575.35H193.481L198.036 557.117C198.173 556.568 198.677 556.19 199.243 556.212Z" fill="white"/>
<path fill-rule="evenodd" clip-rule="evenodd" d="M218.32 575.35C217.66 575.35 217.125 575.886 217.125 576.546C217.125 577.207 217.66 577.742 218.32 577.742C218.98 577.742 219.516 577.207 219.516 576.546C219.516 575.886 218.98 575.35 218.32 575.35ZM214.734 576.546C214.734 574.564 216.34 572.958 218.32 572.958C220.301 572.958 221.906 574.564 221.906 576.546C221.906 578.528 220.301 580.135 218.32 580.135C216.34 580.135 214.734 578.528 214.734 576.546Z" fill="white"/>
<path fill-rule="evenodd" clip-rule="evenodd" d="M290.208 558.392C292.334 556.97 294.834 556.211 297.392 556.211V557.408L297.392 556.211C300.821 556.212 304.11 557.575 306.535 560.002C308.96 562.428 310.323 565.72 310.323 569.151V569.152C310.323 571.711 309.565 574.213 308.144 576.341C306.723 578.469 304.703 580.127 302.34 581.107C299.978 582.086 297.378 582.342 294.869 581.843C292.361 581.344 290.057 580.111 288.248 578.302C286.44 576.492 285.208 574.186 284.709 571.676C284.21 569.166 284.467 566.564 285.445 564.2C286.424 561.835 288.081 559.814 290.208 558.392ZM297.392 558.604C300.187 558.604 302.868 559.715 304.845 561.693C306.822 563.671 307.932 566.354 307.932 569.152M297.392 558.604C295.307 558.604 293.269 559.222 291.536 560.381C289.803 561.54 288.452 563.188 287.654 565.115C286.856 567.042 286.647 569.163 287.054 571.209C287.461 573.255 288.465 575.135 289.939 576.61C291.413 578.085 293.291 579.09 295.336 579.497C297.38 579.904 299.5 579.695 301.426 578.896C303.352 578.098 304.998 576.746 306.156 575.012C307.314 573.277 307.932 571.238 307.932 569.152" fill="white"/>
<path fill-rule="evenodd" clip-rule="evenodd" d="M305.303 577.068C305.77 576.601 306.527 576.601 306.994 577.068L315.19 585.27C315.657 585.737 315.657 586.494 315.19 586.961C314.723 587.428 313.966 587.428 313.499 586.961L305.303 578.759C304.836 578.292 304.836 577.535 305.303 577.068Z" fill="white"/>
<path fill-rule="evenodd" clip-rule="evenodd" d="M380.484 564.585C380.484 563.924 381.02 563.388 381.68 563.388H407.977C408.637 563.388 409.172 563.924 409.172 564.585C409.172 565.245 408.637 565.781 407.977 565.781H381.68C381.02 565.781 380.484 565.245 380.484 564.585Z" fill="white"/>
<path fill-rule="evenodd" clip-rule="evenodd" d="M380.484 571.762C380.484 571.101 381.02 570.565 381.68 570.565H407.977C408.637 570.565 409.172 571.101 409.172 571.762C409.172 572.422 408.637 572.958 407.977 572.958H381.68C381.02 572.958 380.484 572.422 380.484 571.762Z" fill="white"/>
<path fill-rule="evenodd" clip-rule="evenodd" d="M380.484 578.938C380.484 578.278 381.02 577.742 381.68 577.742H407.977C408.637 577.742 409.172 578.278 409.172 578.938C409.172 579.599 408.637 580.134 407.977 580.134H381.68C381.02 580.134 380.484 579.599 380.484 578.938Z" fill="white"/>
<path d="M160.547 536.485H439.453V530.485H160.547V536.485Z" fill="white" mask="url(#path-49-inside-1_178_22905)"/>
<path fill-rule="evenodd" clip-rule="evenodd" d="M205.543 80.4685C206.243 81.1692 206.243 82.3052 205.543 83.0059L196.053 92.5026L205.543 101.999C206.243 102.7 206.243 103.836 205.543 104.537C204.843 105.237 203.708 105.237 203.008 104.537L192.25 93.7713C191.55 93.0706 191.55 91.9346 192.25 91.2339L203.008 80.4685C203.708 79.7678 204.843 79.7678 205.543 80.4685Z" fill="white"/>
<path fill-rule="evenodd" clip-rule="evenodd" d="M193.219 92.5026C193.219 91.5117 194.021 90.7084 195.012 90.7084H216.826C217.816 90.7084 218.619 91.5117 218.619 92.5026C218.619 93.4935 217.816 94.2968 216.826 94.2968H195.012C194.021 94.2968 193.219 93.4935 193.219 92.5026Z" fill="white"/>
<path d="M247.406 92.5025C247.406 88.9792 250.26 86.123 253.781 86.123H346.219C349.74 86.123 352.594 88.9792 352.594 92.5025C352.594 96.0258 349.74 98.882 346.219 98.882H253.781C250.26 98.882 247.406 96.0258 247.406 92.5025Z" fill="#BAE6FD"/>
<path d="M186.047 154.703C186.047 152.06 188.188 149.918 190.828 149.918H257.766C260.406 149.918 262.547 152.06 262.547 154.703C262.547 157.345 260.406 159.487 257.766 159.487H190.828C188.188 159.487 186.047 157.345 186.047 154.703Z" fill="white"/>
<path d="M186.047 177.031C186.047 174.388 188.188 172.246 190.828 172.246H293.625C296.266 172.246 298.406 174.388 298.406 177.031C298.406 179.673 296.266 181.815 293.625 181.815H190.828C188.188 181.815 186.047 179.673 186.047 177.031Z" fill="white"/>
<path d="M275.297 154.703C275.297 152.06 277.438 149.918 280.078 149.918H359.766C362.406 149.918 364.547 152.06 364.547 154.703C364.547 157.345 362.406 159.487 359.766 159.487H280.078C277.438 159.487 275.297 157.345 275.297 154.703Z" fill="white"/>
<g clip-path="url(#clip37_178_22905)">
<rect x="186.047" y="207.333" width="95.625" height="130.779" rx="20" fill="white"/>
<path d="M249.745 338.226C249.745 371.319 223.094 398.147 190.217 398.147C157.341 398.147 130.689 371.319 130.689 338.226C130.689 305.133 157.341 278.305 190.217 278.305C223.094 278.305 249.745 305.133 249.745 338.226Z" fill="#FACC15"/>
<path d="M265.669 246.644C265.669 258.659 255.993 268.399 244.057 268.399C232.121 268.399 222.445 258.659 222.445 246.644C222.445 234.63 232.121 224.89 244.057 224.89C255.993 224.89 265.669 234.63 265.669 246.644Z" fill="white"/>
<path fill-rule="evenodd" clip-rule="evenodd" d="M244.057 266.007C254.66 266.007 263.279 257.351 263.279 246.644C263.279 235.938 254.66 227.282 244.057 227.282C233.455 227.282 224.836 235.938 224.836 246.644C224.836 257.351 233.455 266.007 244.057 266.007ZM244.057 268.399C255.993 268.399 265.669 258.659 265.669 246.644C265.669 234.63 255.993 224.89 244.057 224.89C232.121 224.89 222.445 234.63 222.445 246.644C222.445 258.659 232.121 268.399 244.057 268.399Z" fill="#BAE6FD"/>
</g>
<rect x="294.422" y="207.333" width="95.625" height="130.779" rx="20" fill="white"/>
<path d="M376.936 242.446C376.936 248.348 372.103 253.133 366.14 253.133C360.177 253.133 355.344 248.348 355.344 242.446C355.344 236.544 360.177 231.76 366.14 231.76C372.103 231.76 376.936 236.544 376.936 242.446Z" fill="#FACC15"/>
<path d="M359.97 300.84C359.97 312.855 350.13 322.595 337.992 322.595C325.854 322.595 316.014 312.855 316.014 300.84C316.014 288.825 325.854 279.085 337.992 279.085C350.13 279.085 359.97 288.825 359.97 300.84Z" fill="#BAE6FD"/>
<path fill-rule="evenodd" clip-rule="evenodd" d="M337.992 320.202C348.835 320.202 357.58 311.509 357.58 300.84C357.58 290.171 348.835 281.478 337.992 281.478C327.149 281.478 318.404 290.171 318.404 300.84C318.404 311.509 327.149 320.202 337.992 320.202ZM337.992 322.595C350.13 322.595 359.97 312.855 359.97 300.84C359.97 288.825 350.13 279.085 337.992 279.085C325.854 279.085 316.014 288.825 316.014 300.84C316.014 312.855 325.854 322.595 337.992 322.595Z" fill="#BAE6FD"/>
<rect x="402.797" y="207.333" width="95.625" height="130.779" rx="20" fill="white"/>
<path d="M439.454 240.826L446.948 262.401L469.769 262.866L451.58 276.666L458.189 298.529L439.454 285.482L420.718 298.529L427.328 276.666L409.139 262.866L431.959 262.401L439.454 240.826Z" fill="white"/>
<path fill-rule="evenodd" clip-rule="evenodd" d="M446.948 262.401L439.454 240.826L431.959 262.401L409.139 262.866L427.328 276.666L420.718 298.529L439.454 285.482L458.189 298.529L451.58 276.666L469.769 262.866L446.948 262.401ZM462.844 265.118L445.236 264.759L439.454 248.112L433.671 264.759L416.063 265.118L430.098 275.765L424.998 292.634L439.454 282.568L453.909 292.634L448.81 275.765L462.844 265.118Z" fill="#FACC15"/>
</g>
<rect x="162.047" y="13.4615" width="275.906" height="595.077" rx="42.5" stroke="#0F172A" stroke-width="3"/>
<defs>
<clipPath id="clip0_178_22905">
<rect width="7.63636" height="7.63636" fill="white" transform="matrix(0.179443 -0.983768 -0.983768 -0.179443 93.7832 293.71)"/>
</clipPath>
<clipPath id="clip1_178_22905">
<rect width="7.63636" height="7.63636" fill="white" transform="matrix(0.179443 -0.983768 -0.983768 -0.179443 96.5234 278.685)"/>
</clipPath>
<clipPath id="clip2_178_22905">
<rect width="7.63636" height="7.63636" fill="white" transform="matrix(0.179443 -0.983768 -0.983768 -0.179443 99.2637 263.66)"/>
</clipPath>
<clipPath id="clip3_178_22905">
<rect width="7.63636" height="7.63636" fill="white" transform="matrix(0.179443 -0.983768 -0.983768 -0.179443 102.006 248.635)"/>
</clipPath>
<clipPath id="clip4_178_22905">
<rect width="7.63636" height="7.63636" fill="white" transform="matrix(0.179443 -0.983768 -0.983768 -0.179443 104.746 233.61)"/>
</clipPath>
<clipPath id="clip5_178_22905">
<rect width="7.63636" height="7.63636" fill="white" transform="matrix(0.179443 -0.983768 -0.983768 -0.179443 107.486 218.586)"/>
</clipPath>
<clipPath id="clip6_178_22905">
<rect width="7.63636" height="7.63636" fill="white" transform="matrix(0.179443 -0.983768 -0.983768 -0.179443 78.7578 290.969)"/>
</clipPath>
<clipPath id="clip7_178_22905">
<rect width="7.63636" height="7.63636" fill="white" transform="matrix(0.179443 -0.983768 -0.983768 -0.179443 81.498 275.944)"/>
</clipPath>
<clipPath id="clip8_178_22905">
<rect width="7.63636" height="7.63636" fill="white" transform="matrix(0.179443 -0.983768 -0.983768 -0.179443 84.2402 260.919)"/>
</clipPath>
<clipPath id="clip9_178_22905">
<rect width="7.63636" height="7.63636" fill="white" transform="matrix(0.179443 -0.983768 -0.983768 -0.179443 86.9805 245.895)"/>
</clipPath>
<clipPath id="clip10_178_22905">
<rect width="7.63636" height="7.63636" fill="white" transform="matrix(0.179443 -0.983768 -0.983768 -0.179443 89.7207 230.87)"/>
</clipPath>
<clipPath id="clip11_178_22905">
<rect width="7.63636" height="7.63636" fill="white" transform="matrix(0.179443 -0.983768 -0.983768 -0.179443 92.4609 215.845)"/>
</clipPath>
<clipPath id="clip12_178_22905">
<rect width="7.63636" height="7.63636" fill="white" transform="matrix(0.179443 -0.983768 -0.983768 -0.179443 63.7344 288.229)"/>
</clipPath>
<clipPath id="clip13_178_22905">
<rect width="7.63636" height="7.63636" fill="white" transform="matrix(0.179443 -0.983768 -0.983768 -0.179443 66.4746 273.204)"/>
</clipPath>
<clipPath id="clip14_178_22905">
<rect width="7.63636" height="7.63636" fill="white" transform="matrix(0.179443 -0.983768 -0.983768 -0.179443 69.2148 258.179)"/>
</clipPath>
<clipPath id="clip15_178_22905">
<rect width="7.63636" height="7.63636" fill="white" transform="matrix(0.179443 -0.983768 -0.983768 -0.179443 71.9551 243.154)"/>
</clipPath>
<clipPath id="clip16_178_22905">
<rect width="7.63636" height="7.63636" fill="white" transform="matrix(0.179443 -0.983768 -0.983768 -0.179443 74.6953 228.129)"/>
</clipPath>
<clipPath id="clip17_178_22905">
<rect width="7.63636" height="7.63636" fill="white" transform="matrix(0.179443 -0.983768 -0.983768 -0.179443 77.4375 213.104)"/>
</clipPath>
<clipPath id="clip18_178_22905">
<rect width="7.63636" height="7.63636" fill="white" transform="matrix(0.179443 -0.983768 -0.983768 -0.179443 48.709 285.488)"/>
</clipPath>
<clipPath id="clip19_178_22905">
<rect width="7.63636" height="7.63636" fill="white" transform="matrix(0.179443 -0.983768 -0.983768 -0.179443 51.4492 270.463)"/>
</clipPath>
<clipPath id="clip20_178_22905">
<rect width="7.63636" height="7.63636" fill="white" transform="matrix(0.179443 -0.983768 -0.983768 -0.179443 54.1895 255.438)"/>
</clipPath>
<clipPath id="clip21_178_22905">
<rect width="7.63636" height="7.63636" fill="white" transform="matrix(0.179443 -0.983768 -0.983768 -0.179443 56.9297 240.413)"/>
</clipPath>
<clipPath id="clip22_178_22905">
<rect width="7.63636" height="7.63636" fill="white" transform="matrix(0.179443 -0.983768 -0.983768 -0.179443 59.6719 225.389)"/>
</clipPath>
<clipPath id="clip23_178_22905">
<rect width="7.63636" height="7.63636" fill="white" transform="matrix(0.179443 -0.983768 -0.983768 -0.179443 62.4121 210.364)"/>
</clipPath>
<clipPath id="clip24_178_22905">
<rect width="7.63636" height="7.63636" fill="white" transform="matrix(0.179443 -0.983768 -0.983768 -0.179443 33.6836 282.747)"/>
</clipPath>
<clipPath id="clip25_178_22905">
<rect width="7.63636" height="7.63636" fill="white" transform="matrix(0.179443 -0.983768 -0.983768 -0.179443 36.4238 267.723)"/>
</clipPath>
<clipPath id="clip26_178_22905">
<rect width="7.63636" height="7.63636" fill="white" transform="matrix(0.179443 -0.983768 -0.983768 -0.179443 39.166 252.698)"/>
</clipPath>
<clipPath id="clip27_178_22905">
<rect width="7.63636" height="7.63636" fill="white" transform="matrix(0.179443 -0.983768 -0.983768 -0.179443 41.9062 237.673)"/>
</clipPath>
<clipPath id="clip28_178_22905">
<rect width="7.63636" height="7.63636" fill="white" transform="matrix(0.179443 -0.983768 -0.983768 -0.179443 44.6465 222.648)"/>
</clipPath>
<clipPath id="clip29_178_22905">
<rect width="7.63636" height="7.63636" fill="white" transform="matrix(0.179443 -0.983768 -0.983768 -0.179443 47.3867 207.623)"/>
</clipPath>
<clipPath id="clip30_178_22905">
<rect width="7.63636" height="7.63636" fill="white" transform="matrix(0.179443 -0.983768 -0.983768 -0.179443 18.6582 280.007)"/>
</clipPath>
<clipPath id="clip31_178_22905">
<rect width="7.63636" height="7.63636" fill="white" transform="matrix(0.179443 -0.983768 -0.983768 -0.179443 21.3984 264.982)"/>
</clipPath>
<clipPath id="clip32_178_22905">
<rect width="7.63636" height="7.63636" fill="white" transform="matrix(0.179443 -0.983768 -0.983768 -0.179443 24.1387 249.957)"/>
</clipPath>
<clipPath id="clip33_178_22905">
<rect width="7.63636" height="7.63636" fill="white" transform="matrix(0.179443 -0.983768 -0.983768 -0.179443 26.8789 234.932)"/>
</clipPath>
<clipPath id="clip34_178_22905">
<rect width="7.63636" height="7.63636" fill="white" transform="matrix(0.179443 -0.983768 -0.983768 -0.179443 29.6191 219.907)"/>
</clipPath>
<clipPath id="clip35_178_22905">
<rect width="7.63636" height="7.63636" fill="white" transform="matrix(0.179443 -0.983768 -0.983768 -0.179443 32.3594 204.883)"/>
</clipPath>
<clipPath id="clip36_178_22905">
<rect x="160.547" y="11.9615" width="278.906" height="598.077" rx="44" fill="white"/>
</clipPath>
<clipPath id="clip37_178_22905">
<rect x="186.047" y="207.333" width="95.625" height="130.779" rx="20" fill="white"/>
</clipPath>
</defs>
</svg>
