<svg width="136" height="40" viewBox="0 0 136 40" fill="none" xmlns="http://www.w3.org/2000/svg">
<path d="M130.664 0H5.66406C2.90264 0 0.664062 2.23858 0.664062 5V35C0.664062 37.7614 2.90264 40 5.66406 40H130.664C133.425 40 135.664 37.7614 135.664 35V5C135.664 2.23858 133.425 0 130.664 0Z" fill="black"/>
<path d="M130.664 0.8C131.778 0.8 132.846 1.2425 133.634 2.03015C134.422 2.8178 134.864 3.88609 134.864 5V35C134.864 36.1139 134.422 37.1822 133.634 37.9698C132.846 38.7575 131.778 39.2 130.664 39.2H5.66406C4.55015 39.2 3.48187 38.7575 2.69421 37.9698C1.90656 37.1822 1.46406 36.1139 1.46406 35V5C1.46406 3.88609 1.90656 2.8178 2.69421 2.03015C3.48187 1.2425 4.55015 0.8 5.66406 0.8H130.664ZM130.664 0H5.66406C4.33798 0 3.06621 0.526784 2.12853 1.46447C1.19085 2.40215 0.664063 3.67392 0.664062 5V35C0.664063 36.3261 1.19085 37.5979 2.12853 38.5355C3.06621 39.4732 4.33798 40 5.66406 40H130.664C131.99 40 133.262 39.4732 134.2 38.5355C135.137 37.5979 135.664 36.3261 135.664 35V5C135.664 3.67392 135.137 2.40215 134.2 1.46447C133.262 0.526784 131.99 0 130.664 0Z" fill="#A6A6A6"/>
<path d="M45.1175 10.4858H47.1512V13.3951C46.8347 13.496 46.5128 13.5724 46.1855 13.6242C45.8582 13.676 45.479 13.702 45.048 13.702C44.1423 13.702 43.4372 13.4333 42.9325 12.8959C42.4279 12.3558 42.1755 11.6001 42.1755 10.629C42.1755 10.0071 42.2997 9.46285 42.5479 8.99639C42.7989 8.52719 43.1589 8.16984 43.6281 7.92434C44.0973 7.6761 44.647 7.55198 45.2771 7.55198C45.9154 7.55198 46.5101 7.66928 47.0611 7.90388L46.7911 8.51765C46.251 8.28851 45.7313 8.17394 45.2321 8.17394C44.5038 8.17394 43.935 8.3908 43.5258 8.82453C43.1167 9.25826 42.9121 9.85976 42.9121 10.629C42.9121 11.4365 43.1085 12.0489 43.5013 12.4662C43.8968 12.8836 44.4765 13.0923 45.2403 13.0923C45.6549 13.0923 46.06 13.0445 46.4556 12.9491V11.1078H45.1175V10.4858ZM51.9263 13.6201H48.5915V7.63791H51.9263V8.25577H49.2871V10.183H51.7667V10.7968H49.2871V12.9982H51.9263V13.6201ZM55.0974 13.6201H54.4018V8.25577H52.5073V7.63791H56.9919V8.25577H55.0974V13.6201ZM60.0731 13.6201V7.63791H60.7687V13.6201H60.0731ZM64.2549 13.6201H63.5593V8.25577H61.6648V7.63791H66.1494V8.25577H64.2549V13.6201ZM74.423 10.6208C74.423 11.5783 74.1802 12.3312 73.6946 12.8795C73.2118 13.4278 72.5394 13.702 71.6774 13.702C70.7963 13.702 70.1157 13.4333 69.6356 12.8959C69.1582 12.3558 68.9195 11.5947 68.9195 10.6126C68.9195 9.6388 69.1596 8.88454 69.6397 8.34988C70.1198 7.81249 70.8017 7.5438 71.6856 7.5438C72.5449 7.5438 73.2159 7.81659 73.6987 8.36216C74.1816 8.90773 74.423 9.66062 74.423 10.6208ZM69.656 10.6208C69.656 11.431 69.8279 12.0461 70.1716 12.4662C70.5181 12.8836 71.02 13.0923 71.6774 13.0923C72.3403 13.0923 72.8408 12.8836 73.1791 12.4662C73.5173 12.0489 73.6865 11.4337 73.6865 10.6208C73.6865 9.81611 73.5173 9.20643 73.1791 8.7918C72.8436 8.37443 72.3457 8.16575 71.6856 8.16575C71.0227 8.16575 70.5181 8.3758 70.1716 8.79589C69.8279 9.21325 69.656 9.82157 69.656 10.6208ZM80.4338 13.6201H79.64L76.3707 8.59948H76.338C76.3816 9.1887 76.4034 9.72882 76.4034 10.2198V13.6201H75.761V7.63791H76.5466L79.8078 12.6381H79.8405C79.8351 12.5644 79.8228 12.3285 79.8037 11.9302C79.7846 11.5292 79.7778 11.2428 79.7832 11.0709V7.63791H80.4338V13.6201Z" fill="white"/>
<path d="M45.1175 10.4858V10.3858H45.0175V10.4858H45.1175ZM47.1512 10.4858H47.2512V10.3858H47.1512V10.4858ZM47.1512 13.3951L47.1816 13.4903L47.2512 13.4681V13.3951H47.1512ZM42.9325 12.8959L42.8595 12.9641L42.8596 12.9643L42.9325 12.8959ZM42.5479 8.99639L42.4597 8.94922L42.4596 8.94941L42.5479 8.99639ZM43.6281 7.92434L43.6745 8.01294L43.6749 8.01273L43.6281 7.92434ZM47.0611 7.90388L47.1527 7.94415L47.1934 7.85151L47.1003 7.81187L47.0611 7.90388ZM46.7911 8.51765L46.752 8.6097L46.8429 8.64824L46.8826 8.55792L46.7911 8.51765ZM43.5013 12.4662L43.4285 12.5348L43.4287 12.535L43.5013 12.4662ZM46.4556 12.9491L46.479 13.0463L46.5556 13.0278V12.9491H46.4556ZM46.4556 11.1078H46.5556V11.0078H46.4556V11.1078ZM45.1175 11.1078H45.0175V11.2078H45.1175V11.1078ZM45.1175 10.5858H47.1512V10.3858H45.1175V10.5858ZM47.0512 10.4858V13.3951H47.2512V10.4858H47.0512ZM47.1208 13.2998C46.8092 13.3992 46.4922 13.4744 46.1699 13.5254L46.2011 13.723C46.5335 13.6704 46.8603 13.5928 47.1816 13.4903L47.1208 13.2998ZM46.1699 13.5254C45.849 13.5762 45.4752 13.602 45.048 13.602V13.802C45.4828 13.802 45.8674 13.7758 46.2011 13.723L46.1699 13.5254ZM45.048 13.602C44.1632 13.602 43.487 13.3402 43.0054 12.8274L42.8596 12.9643C43.3874 13.5263 44.1215 13.802 45.048 13.802V13.602ZM43.0056 12.8276C42.5231 12.3112 42.2755 11.583 42.2755 10.629H42.0755C42.0755 11.6173 42.3326 12.4003 42.8595 12.9641L43.0056 12.8276ZM42.2755 10.629C42.2755 10.0205 42.3969 9.49301 42.6362 9.04337L42.4596 8.94941C42.2024 9.4327 42.0755 9.99358 42.0755 10.629H42.2755ZM42.6361 9.04355C42.8776 8.59196 43.2232 8.2491 43.6745 8.01294L43.5818 7.83573C43.0947 8.09059 42.7201 8.46242 42.4597 8.94922L42.6361 9.04355ZM43.6749 8.01273C44.1272 7.77342 44.6602 7.65198 45.2771 7.65198V7.45198C44.6337 7.45198 44.0674 7.57878 43.5814 7.83594L43.6749 8.01273ZM45.2771 7.65198C45.9029 7.65198 46.4841 7.7669 47.022 7.99589L47.1003 7.81187C46.5361 7.57166 45.928 7.45198 45.2771 7.45198V7.65198ZM46.9696 7.8636L46.6996 8.47737L46.8826 8.55792L47.1527 7.94415L46.9696 7.8636ZM46.8301 8.42559C46.2798 8.19211 45.7469 8.07394 45.2321 8.07394V8.27394C45.7157 8.27394 46.2221 8.3849 46.752 8.6097L46.8301 8.42559ZM45.2321 8.07394C44.4828 8.07394 43.8852 8.29784 43.4531 8.75591L43.5986 8.89315C43.9848 8.48376 44.5248 8.27394 45.2321 8.27394V8.07394ZM43.4531 8.75591C43.0218 9.21311 42.8121 9.84191 42.8121 10.629H43.0121C43.0121 9.8776 43.2115 9.30341 43.5986 8.89315L43.4531 8.75591ZM42.8121 10.629C42.8121 11.4515 43.0121 12.0924 43.4285 12.5348L43.5741 12.3977C43.2048 12.0053 43.0121 11.4214 43.0121 10.629H42.8121ZM43.4287 12.535C43.8487 12.9782 44.4584 13.1923 45.2403 13.1923V12.9923C44.4945 12.9923 43.9449 12.789 43.5739 12.3974L43.4287 12.535ZM45.2403 13.1923C45.6627 13.1923 46.0757 13.1436 46.479 13.0463L46.4321 12.8519C46.0444 12.9454 45.6472 12.9923 45.2403 12.9923V13.1923ZM46.5556 12.9491V11.1078H46.3556V12.9491H46.5556ZM46.4556 11.0078H45.1175V11.2078H46.4556V11.0078ZM45.2175 11.1078V10.4858H45.0175V11.1078H45.2175ZM51.9263 13.6201V13.7201H52.0263V13.6201H51.9263ZM48.5915 13.6201H48.4915V13.7201H48.5915V13.6201ZM48.5915 7.63791V7.53791H48.4915V7.63791H48.5915ZM51.9263 7.63791H52.0263V7.53791H51.9263V7.63791ZM51.9263 8.25577V8.35577H52.0263V8.25577H51.9263ZM49.2871 8.25577V8.15577H49.1871V8.25577H49.2871ZM49.2871 10.183H49.1871V10.283H49.2871V10.183ZM51.7667 10.183H51.8667V10.083H51.7667V10.183ZM51.7667 10.7968V10.8968H51.8667V10.7968H51.7667ZM49.2871 10.7968V10.6968H49.1871V10.7968H49.2871ZM49.2871 12.9982H49.1871V13.0982H49.2871V12.9982ZM51.9263 12.9982H52.0263V12.8982H51.9263V12.9982ZM51.9263 13.5201H48.5915V13.7201H51.9263V13.5201ZM48.6915 13.6201V7.63791H48.4915V13.6201H48.6915ZM48.5915 7.73791H51.9263V7.53791H48.5915V7.73791ZM51.8263 7.63791V8.25577H52.0263V7.63791H51.8263ZM51.9263 8.15577H49.2871V8.35577H51.9263V8.15577ZM49.1871 8.25577V10.183H49.3871V8.25577H49.1871ZM49.2871 10.283H51.7667V10.083H49.2871V10.283ZM51.6667 10.183V10.7968H51.8667V10.183H51.6667ZM51.7667 10.6968H49.2871V10.8968H51.7667V10.6968ZM49.1871 10.7968V12.9982H49.3871V10.7968H49.1871ZM49.2871 13.0982H51.9263V12.8982H49.2871V13.0982ZM51.8263 12.9982V13.6201H52.0263V12.9982H51.8263ZM55.0974 13.6201V13.7201H55.1974V13.6201H55.0974ZM54.4018 13.6201H54.3018V13.7201H54.4018V13.6201ZM54.4018 8.25577H54.5018V8.15577H54.4018V8.25577ZM52.5073 8.25577H52.4073V8.35577H52.5073V8.25577ZM52.5073 7.63791V7.53791H52.4073V7.63791H52.5073ZM56.9919 7.63791H57.0919V7.53791H56.9919V7.63791ZM56.9919 8.25577V8.35577H57.0919V8.25577H56.9919ZM55.0974 8.25577V8.15577H54.9974V8.25577H55.0974ZM55.0974 13.5201H54.4018V13.7201H55.0974V13.5201ZM54.5018 13.6201V8.25577H54.3018V13.6201H54.5018ZM54.4018 8.15577H52.5073V8.35577H54.4018V8.15577ZM52.6073 8.25577V7.63791H52.4073V8.25577H52.6073ZM52.5073 7.73791H56.9919V7.53791H52.5073V7.73791ZM56.8919 7.63791V8.25577H57.0919V7.63791H56.8919ZM56.9919 8.15577H55.0974V8.35577H56.9919V8.15577ZM54.9974 8.25577V13.6201H55.1974V8.25577H54.9974ZM60.0731 13.6201H59.9731V13.7201H60.0731V13.6201ZM60.0731 7.63791V7.53791H59.9731V7.63791H60.0731ZM60.7687 7.63791H60.8687V7.53791H60.7687V7.63791ZM60.7687 13.6201V13.7201H60.8687V13.6201H60.7687ZM60.1731 13.6201V7.63791H59.9731V13.6201H60.1731ZM60.0731 7.73791H60.7687V7.53791H60.0731V7.73791ZM60.6687 7.63791V13.6201H60.8687V7.63791H60.6687ZM60.7687 13.5201H60.0731V13.7201H60.7687V13.5201ZM64.2549 13.6201V13.7201H64.3549V13.6201H64.2549ZM63.5593 13.6201H63.4593V13.7201H63.5593V13.6201ZM63.5593 8.25577H63.6593V8.15577H63.5593V8.25577ZM61.6648 8.25577H61.5648V8.35577H61.6648V8.25577ZM61.6648 7.63791V7.53791H61.5648V7.63791H61.6648ZM66.1494 7.63791H66.2494V7.53791H66.1494V7.63791ZM66.1494 8.25577V8.35577H66.2494V8.25577H66.1494ZM64.2549 8.25577V8.15577H64.1549V8.25577H64.2549ZM64.2549 13.5201H63.5593V13.7201H64.2549V13.5201ZM63.6593 13.6201V8.25577H63.4593V13.6201H63.6593ZM63.5593 8.15577H61.6648V8.35577H63.5593V8.15577ZM61.7648 8.25577V7.63791H61.5648V8.25577H61.7648ZM61.6648 7.73791H66.1494V7.53791H61.6648V7.73791ZM66.0494 7.63791V8.25577H66.2494V7.63791H66.0494ZM66.1494 8.15577H64.2549V8.35577H66.1494V8.15577ZM64.1549 8.25577V13.6201H64.3549V8.25577H64.1549ZM73.6946 12.8795L73.6198 12.8132L73.6196 12.8134L73.6946 12.8795ZM69.6356 12.8959L69.5607 12.9621L69.561 12.9625L69.6356 12.8959ZM69.6397 8.34988L69.7141 8.4167L69.7143 8.41651L69.6397 8.34988ZM70.1716 12.4662L70.0942 12.5296L70.0947 12.5301L70.1716 12.4662ZM73.1791 8.7918L73.1011 8.85445L73.1016 8.85501L73.1791 8.7918ZM70.1716 8.79589L70.0945 8.73226L70.0944 8.73232L70.1716 8.79589ZM74.323 10.6208C74.323 11.5616 74.0847 12.2882 73.6198 12.8132L73.7695 12.9458C74.2757 12.3742 74.523 11.5951 74.523 10.6208H74.323ZM73.6196 12.8134C73.1592 13.3362 72.5163 13.602 71.6774 13.602V13.802C72.5624 13.802 73.2644 13.5194 73.7697 12.9456L73.6196 12.8134ZM71.6774 13.602C70.8179 13.602 70.1672 13.3408 69.7102 12.8292L69.561 12.9625C70.0642 13.5258 70.7747 13.802 71.6774 13.802V13.602ZM69.7105 12.8296C69.2543 12.3135 69.0195 11.5792 69.0195 10.6126H68.8195C68.8195 11.6102 69.0621 12.398 69.5607 12.9621L69.7105 12.8296ZM69.0195 10.6126C69.0195 9.65461 69.2555 8.92734 69.7141 8.4167L69.5653 8.28307C69.0636 8.84175 68.8195 9.62299 68.8195 10.6126H69.0195ZM69.7143 8.41651C70.1712 7.90506 70.8232 7.6438 71.6856 7.6438V7.4438C70.7803 7.4438 70.0684 7.71993 69.5651 8.28326L69.7143 8.41651ZM71.6856 7.6438C72.5219 7.6438 73.1634 7.9082 73.6239 8.42843L73.7736 8.29588C73.2684 7.72497 72.5679 7.4438 71.6856 7.4438V7.6438ZM73.6239 8.42843C74.0859 8.95056 74.323 9.67713 74.323 10.6208H74.523C74.523 9.64411 74.2772 8.86491 73.7736 8.29588L73.6239 8.42843ZM69.556 10.6208C69.556 11.4431 69.7302 12.0846 70.0942 12.5296L70.249 12.4029C69.9256 12.0076 69.756 11.4189 69.756 10.6208H69.556ZM70.0947 12.5301C70.4641 12.9752 70.9972 13.1923 71.6774 13.1923V12.9923C71.0428 12.9923 70.572 12.792 70.2486 12.4024L70.0947 12.5301ZM71.6774 13.1923C72.3627 13.1923 72.8951 12.9754 73.2568 12.5292L73.1014 12.4033C72.7865 12.7918 72.3179 12.9923 71.6774 12.9923V13.1923ZM73.2568 12.5292C73.6152 12.0869 73.7865 11.4454 73.7865 10.6208H73.5865C73.5865 11.4221 73.4194 12.0108 73.1014 12.4033L73.2568 12.5292ZM73.7865 10.6208C73.7865 9.80421 73.6151 9.16812 73.2566 8.72858L73.1016 8.85501C73.4195 9.24474 73.5865 9.82801 73.5865 10.6208H73.7865ZM73.257 8.72914C72.8981 8.28272 72.3683 8.06575 71.6856 8.06575V8.26575C72.3232 8.26575 72.789 8.46615 73.1011 8.85445L73.257 8.72914ZM71.6856 8.06575C71 8.06575 70.464 8.28415 70.0945 8.73226L70.2488 8.85951C70.5721 8.46745 71.0454 8.26575 71.6856 8.26575V8.06575ZM70.0944 8.73232C69.7303 9.17441 69.556 9.8091 69.556 10.6208H69.756C69.756 9.83403 69.9255 9.25209 70.2488 8.85946L70.0944 8.73232ZM80.4338 13.6201V13.7201H80.5338V13.6201H80.4338ZM79.64 13.6201L79.5562 13.6747L79.5858 13.7201H79.64V13.6201ZM76.3707 8.59948L76.4545 8.54491L76.4249 8.49948H76.3707V8.59948ZM76.338 8.59948V8.49948H76.2303L76.2382 8.60687L76.338 8.59948ZM76.4034 13.6201V13.7201H76.5034V13.6201H76.4034ZM75.761 13.6201H75.661V13.7201H75.761V13.6201ZM75.761 7.63791V7.53791H75.661V7.63791H75.761ZM76.5466 7.63791L76.6304 7.58328L76.6008 7.53791H76.5466V7.63791ZM79.8078 12.6381L79.724 12.6927L79.7536 12.7381H79.8078V12.6381ZM79.8405 12.6381V12.7381H79.9482L79.9403 12.6307L79.8405 12.6381ZM79.8037 11.9302L79.7038 11.935L79.7038 11.935L79.8037 11.9302ZM79.7832 11.0709L79.8832 11.0741V11.0709H79.7832ZM79.7832 7.63791V7.53791H79.6832V7.63791H79.7832ZM80.4338 7.63791H80.5338V7.53791H80.4338V7.63791ZM80.4338 13.5201H79.64V13.7201H80.4338V13.5201ZM79.7238 13.5655L76.4545 8.54491L76.2869 8.65405L79.5562 13.6747L79.7238 13.5655ZM76.3707 8.49948H76.338V8.69948H76.3707V8.49948ZM76.2382 8.60687C76.2817 9.19411 76.3034 9.73172 76.3034 10.2198H76.5034C76.5034 9.72592 76.4815 9.1833 76.4377 8.5921L76.2382 8.60687ZM76.3034 10.2198V13.6201H76.5034V10.2198H76.3034ZM76.4034 13.5201H75.761V13.7201H76.4034V13.5201ZM75.861 13.6201V7.63791H75.661V13.6201H75.861ZM75.761 7.73791H76.5466V7.53791H75.761V7.73791ZM76.4629 7.69254L79.724 12.6927L79.8916 12.5835L76.6304 7.58328L76.4629 7.69254ZM79.8078 12.7381H79.8405V12.5381H79.8078V12.7381ZM79.9403 12.6307C79.9349 12.5587 79.9227 12.3244 79.9036 11.9254L79.7038 11.935C79.7229 12.3325 79.7352 12.5702 79.7408 12.6455L79.9403 12.6307ZM79.9036 11.9254C79.8845 11.5246 79.8779 11.2416 79.8832 11.0741L79.6833 11.0678C79.6777 11.2439 79.6847 11.5339 79.7038 11.935L79.9036 11.9254ZM79.8832 11.0709V7.63791H79.6832V11.0709H79.8832ZM79.7832 7.73791H80.4338V7.53791H79.7832V7.73791ZM80.3338 7.63791V13.6201H80.5338V7.63791H80.3338Z" fill="white"/>
<path d="M68.8042 21.7499C67.9616 21.7519 67.1386 22.0037 66.4391 22.4734C65.7397 22.9432 65.1952 23.6098 64.8746 24.3889C64.554 25.1681 64.4717 26.0248 64.638 26.8508C64.8043 27.6768 65.2118 28.4349 65.809 29.0293C66.4061 29.6236 67.1662 30.0276 67.9929 30.19C68.8196 30.3524 69.676 30.2661 70.4536 29.9418C71.2313 29.6175 71.8953 29.07 72.3618 28.3683C72.8282 27.6667 73.0761 26.8425 73.0742 25.9999C73.0823 25.4379 72.9773 24.8799 72.7653 24.3593C72.5534 23.8386 72.2388 23.366 71.8404 22.9694C71.442 22.5729 70.9679 22.2606 70.4463 22.051C69.9246 21.8415 69.3662 21.7391 68.8042 21.7499ZM68.8042 28.5799C68.2877 28.616 67.7724 28.496 67.3251 28.2353C66.8779 27.9747 66.5193 27.5855 66.2962 27.1184C66.073 26.6512 65.9956 26.1278 66.0738 25.6161C66.1521 25.1043 66.3825 24.628 66.7351 24.249C67.0877 23.8699 67.5462 23.6057 68.0509 23.4907C68.5557 23.3757 69.0833 23.4152 69.5653 23.604C70.0474 23.7929 70.4614 24.1223 70.7537 24.5496C71.0459 24.9769 71.2029 25.4822 71.2042 25.9999C71.2203 26.3279 71.1705 26.6559 71.0579 26.9643C70.9452 27.2728 70.772 27.5556 70.5483 27.7961C70.3246 28.0366 70.0551 28.2298 69.7555 28.3644C69.456 28.499 69.1325 28.5723 68.8042 28.5799ZM59.4842 21.7499C58.6416 21.7519 57.8186 22.0037 57.1191 22.4734C56.4197 22.9432 55.8752 23.6098 55.5546 24.3889C55.234 25.1681 55.1517 26.0248 55.318 26.8508C55.4843 27.6768 55.8918 28.4349 56.489 29.0293C57.0861 29.6236 57.8462 30.0276 58.6729 30.19C59.4996 30.3524 60.356 30.2661 61.1336 29.9418C61.9113 29.6175 62.5753 29.07 63.0418 28.3683C63.5082 27.6667 63.7561 26.8425 63.7542 25.9999C63.7623 25.4379 63.6573 24.8799 63.4453 24.3593C63.2334 23.8386 62.9188 23.366 62.5204 22.9694C62.122 22.5729 61.6479 22.2606 61.1263 22.051C60.6046 21.8415 60.0462 21.7391 59.4842 21.7499ZM59.4842 28.5799C58.9677 28.616 58.4524 28.496 58.0051 28.2353C57.5579 27.9747 57.1993 27.5855 56.9762 27.1184C56.753 26.6512 56.6756 26.1278 56.7538 25.6161C56.8321 25.1043 57.0625 24.628 57.4151 24.249C57.7677 23.8699 58.2262 23.6057 58.7309 23.4907C59.2357 23.3757 59.7633 23.4152 60.2453 23.604C60.7274 23.7929 61.1414 24.1223 61.4337 24.5496C61.7259 24.9769 61.8829 25.4822 61.8842 25.9999C61.9003 26.3279 61.8505 26.6559 61.7379 26.9643C61.6252 27.2728 61.452 27.5556 61.2283 27.7961C61.0046 28.0366 60.7351 28.2298 60.4355 28.3644C60.136 28.499 59.8125 28.5723 59.4842 28.5799ZM48.4042 23.0599V24.8599H52.7242C52.6564 25.7077 52.304 26.5077 51.7242 27.1299C51.2908 27.5714 50.7696 27.9171 50.1943 28.1444C49.6189 28.3718 49.0023 28.4759 48.3842 28.4499C47.1111 28.4499 45.8902 27.9442 44.99 27.044C44.0899 26.1439 43.5842 24.923 43.5842 23.6499C43.5842 22.3769 44.0899 21.156 44.99 20.2558C45.8902 19.3556 47.1111 18.8499 48.3842 18.8499C49.6046 18.8318 50.7831 19.2952 51.6642 20.1399L52.9342 18.8699C52.3381 18.2804 51.6305 17.8158 50.8526 17.5033C50.0748 17.1908 49.2424 17.0366 48.4042 17.0499C47.5152 17.0153 46.6283 17.1605 45.7968 17.4769C44.9652 17.7932 44.2061 18.2742 43.5649 18.8909C42.9237 19.5077 42.4136 20.2475 42.0652 21.0661C41.7167 21.8847 41.5371 22.7652 41.5371 23.6549C41.5371 24.5446 41.7167 25.4251 42.0652 26.2437C42.4136 27.0623 42.9237 27.8022 43.5649 28.4189C44.2061 29.0357 44.9652 29.5166 45.7968 29.833C46.6283 30.1493 47.5152 30.2945 48.4042 30.2599C49.2596 30.2941 50.1126 30.1469 50.9071 29.8281C51.7016 29.5092 52.4197 29.0259 53.0142 28.4099C54.0643 27.2563 54.6238 25.7391 54.5742 24.1799C54.5777 23.8046 54.5476 23.4298 54.4842 23.0599H48.4042ZM93.7142 24.4599C93.4534 23.6927 92.9657 23.0227 92.3157 22.5388C91.6657 22.0548 90.884 21.7797 90.0742 21.7499C89.5272 21.7489 88.9857 21.86 88.4834 22.0765C87.981 22.2929 87.5284 22.6101 87.1535 23.0085C86.7786 23.4068 86.4894 23.8778 86.3038 24.3923C86.1181 24.9068 86.04 25.454 86.0742 25.9999C86.0656 26.9128 86.3526 27.8039 86.8923 28.5402C87.432 29.2765 88.1953 29.8184 89.0684 30.0851C89.9415 30.3517 90.8774 30.3288 91.7364 30.0196C92.5953 29.7105 93.3312 29.1318 93.8342 28.3699L92.3842 27.3699C92.168 27.7302 91.8614 28.0277 91.4948 28.2329C91.1282 28.4382 90.7143 28.544 90.2942 28.5399C89.8607 28.5578 89.432 28.4442 89.0644 28.214C88.6967 27.9837 88.4073 27.6477 88.2342 27.2499L93.9242 24.8999L93.7142 24.4599ZM87.9142 25.8799C87.8939 25.5693 87.9358 25.2578 88.0374 24.9635C88.1391 24.6693 88.2984 24.3983 88.5061 24.1664C88.7137 23.9346 88.9656 23.7464 89.2469 23.6131C89.5281 23.4798 89.8332 23.4039 90.1442 23.3899C90.4664 23.3703 90.7872 23.4461 91.0665 23.608C91.3458 23.7699 91.5711 24.0106 91.7142 24.2999L87.9142 25.8799ZM83.2942 29.9999H85.1642V17.4999H83.2942V29.9999ZM80.2342 22.6999H80.1642C79.8848 22.3818 79.54 22.1277 79.1534 21.9551C78.7668 21.7825 78.3475 21.6955 77.9242 21.6999C76.8313 21.7529 75.8008 22.2243 75.0461 23.0165C74.2915 23.8087 73.8705 24.8608 73.8705 25.9549C73.8705 27.049 74.2915 28.1012 75.0461 28.8933C75.8008 29.6855 76.8313 30.1569 77.9242 30.2099C78.3481 30.2184 78.7687 30.1332 79.156 29.9603C79.5432 29.7875 79.8874 29.5312 80.1642 29.2099H80.2342V29.8199C80.2342 31.4499 79.3642 32.3199 77.9642 32.3199C77.4965 32.3096 77.0424 32.1606 76.6596 31.8918C76.2768 31.6229 75.9825 31.2464 75.8142 30.8099L74.1942 31.4799C74.4937 32.2322 75.0144 32.8758 75.6876 33.3258C76.3607 33.7757 77.1546 34.0108 77.9642 33.9999C80.1542 33.9999 81.9642 32.7099 81.9642 29.5699V21.9999H80.2342V22.6999ZM78.0842 28.5799C77.429 28.5391 76.814 28.25 76.3645 27.7716C75.9149 27.2932 75.6647 26.6614 75.6647 26.0049C75.6647 25.3485 75.9149 24.7167 76.3645 24.2383C76.814 23.7598 77.429 23.4708 78.0842 23.4299C78.4044 23.4437 78.7186 23.5218 79.008 23.6596C79.2975 23.7973 79.5562 23.9918 79.769 24.2316C79.9817 24.4714 80.144 24.7515 80.2462 25.0553C80.3485 25.3591 80.3886 25.6803 80.3642 25.9999C80.3914 26.3206 80.3534 26.6435 80.2523 26.9491C80.1513 27.2546 79.9893 27.5365 79.7761 27.7777C79.563 28.0189 79.3032 28.2143 79.0124 28.3522C78.7215 28.4901 78.4058 28.5676 78.0842 28.5799ZM102.474 17.4999H97.9942V29.9999H99.8642V25.2599H102.474C103.007 25.2982 103.542 25.2263 104.046 25.0487C104.55 24.871 105.012 24.5915 105.403 24.2274C105.794 23.8634 106.106 23.4227 106.32 22.9328C106.533 22.4428 106.643 21.9142 106.643 21.3799C106.643 20.8456 106.533 20.317 106.32 19.8271C106.106 19.3372 105.794 18.8965 105.403 18.5324C105.012 18.1684 104.55 17.8888 104.046 17.7112C103.542 17.5336 103.007 17.4616 102.474 17.4999ZM102.474 23.4999H99.8642V19.2399H102.514C102.795 19.2399 103.073 19.2953 103.333 19.4028C103.593 19.5104 103.829 19.668 104.027 19.8667C104.226 20.0654 104.384 20.3013 104.491 20.561C104.599 20.8206 104.654 21.0989 104.654 21.3799C104.654 21.661 104.599 21.9392 104.491 22.1989C104.384 22.4585 104.226 22.6944 104.027 22.8931C103.829 23.0918 103.593 23.2495 103.333 23.357C103.073 23.4646 102.795 23.5199 102.514 23.5199L102.474 23.4999ZM114.014 21.7099C113.333 21.6679 112.655 21.8265 112.063 22.1659C111.471 22.5054 110.992 23.0109 110.684 23.6199L112.334 24.3099C112.501 24.0093 112.751 23.7634 113.055 23.602C113.358 23.4405 113.702 23.3703 114.044 23.3999C114.282 23.3722 114.522 23.392 114.752 23.4582C114.981 23.5245 115.196 23.6358 115.382 23.7856C115.568 23.9355 115.722 24.1209 115.836 24.3311C115.95 24.5413 116.021 24.7721 116.044 25.0099V25.1299C115.443 24.8138 114.774 24.6491 114.094 24.6499C112.314 24.6499 110.494 25.6499 110.494 27.4699C110.512 27.8568 110.607 28.2361 110.774 28.5855C110.941 28.9348 111.177 29.247 111.467 29.5035C111.757 29.7601 112.096 29.9557 112.463 30.0787C112.83 30.2018 113.218 30.2498 113.604 30.2199C114.073 30.2459 114.541 30.1466 114.959 29.9322C115.378 29.7178 115.731 29.3961 115.984 28.9999H116.044V29.9999H117.844V25.1899C117.844 22.9999 116.184 21.7299 114.054 21.7299L114.014 21.7099ZM113.784 28.5599C113.174 28.5599 112.324 28.2499 112.324 27.4999C112.324 26.4999 113.384 26.1599 114.324 26.1599C114.918 26.1453 115.505 26.2903 116.024 26.5799C115.961 27.123 115.704 27.6249 115.299 27.9926C114.895 28.3604 114.371 28.569 113.824 28.5799L113.784 28.5599ZM124.404 21.9999L122.264 27.4199H122.204L119.984 21.9999H117.984L121.314 29.5799L119.414 33.7899H121.364L126.484 21.9999H124.404ZM107.604 29.9999H109.464V17.4999H107.604V29.9999Z" fill="white"/>
<path d="M21.3844 19.4199L10.7344 30.7199C10.8507 31.1473 11.0637 31.5423 11.357 31.8742C11.6503 32.2062 12.0159 32.4663 12.4257 32.6345C12.8355 32.8026 13.2785 32.8744 13.7204 32.8441C14.1623 32.8138 14.5913 32.6824 14.9744 32.4599L26.9744 25.5399L21.3844 19.4199Z" fill="#EA4335"/>
<path d="M32.1543 17.5L26.9743 14.5L21.1543 19.69L26.9943 25.54L32.1443 22.54C32.6021 22.2948 32.9848 21.93 33.2516 21.4845C33.5184 21.0389 33.6593 20.5293 33.6593 20.01C33.6593 19.4907 33.5184 18.9811 33.2516 18.5355C32.9848 18.09 32.6021 17.7252 32.1443 17.48L32.1543 17.5Z" fill="#FBBC04"/>
<path d="M10.7351 9.28027C10.6822 9.51648 10.6587 9.75831 10.6651 10.0003V30.0003C10.6668 30.2502 10.7004 30.4989 10.7651 30.7403L21.7651 19.7403L10.7351 9.28027Z" fill="#4285F4"/>
<path d="M21.4631 19.9996L26.9731 14.4896L14.9731 7.54965C14.5223 7.28165 14.0076 7.14002 13.4831 7.13965C12.8505 7.14146 12.2359 7.35082 11.7337 7.73558C11.2315 8.12035 10.8695 8.65927 10.7031 9.26965L21.4631 19.9996Z" fill="#34A853"/>
</svg>
