<svg width="65" height="64" viewBox="0 0 65 64" fill="none" xmlns="http://www.w3.org/2000/svg">
<path d="M12.6925 38.4403L15.4632 32.5656C15.8189 31.8115 16.8464 31.8115 17.2021 32.5656L19.9728 38.4403L26.1689 39.3883C26.9639 39.5099 27.2807 40.5325 26.7052 41.1195L22.2225 45.6891L23.2805 52.1448C23.4163 52.9739 22.5848 53.6059 21.8735 53.2144L16.3327 50.1648L10.7919 53.2144C10.0805 53.6059 9.24903 52.9739 9.38489 52.1448L10.4428 45.6891L5.96015 41.1195C5.3846 40.5325 5.70145 39.5099 6.49644 39.3883L12.6925 38.4403Z" stroke="#0F172A" stroke-width="2" stroke-linecap="round" stroke-linejoin="round"/>
<path d="M44.6924 38.4403L47.4633 32.5656C47.8188 31.8115 48.8465 31.8115 49.202 32.5656L51.9729 38.4403L58.1689 39.3883C58.9638 39.5099 59.2806 40.5325 58.7052 41.1195L54.2225 45.6891L55.2804 52.1448C55.4164 52.9739 54.5849 53.6059 53.8734 53.2144L48.3326 50.1648L42.7918 53.2144C42.0804 53.6059 41.2489 52.9739 41.3849 52.1448L42.4428 45.6891L37.9601 41.1195C37.3846 40.5325 37.7014 39.5099 38.4964 39.3883L44.6924 38.4403Z" stroke="#0F172A" stroke-width="2" stroke-linecap="round" stroke-linejoin="round"/>
<path d="M28.6924 14.4404L31.4633 8.56562C31.8188 7.81146 32.8465 7.81146 33.202 8.56562L35.9729 14.4404L42.1689 15.3883C42.9639 15.5099 43.2807 16.5326 42.7052 17.1194L38.2225 21.689L39.2804 28.1448C39.4164 28.9739 38.5849 29.6059 37.8735 29.2144L32.3327 26.1647L26.7919 29.2144C26.0805 29.6059 25.249 28.9739 25.3849 28.1448L26.4428 21.689L21.9601 17.1194C21.3846 16.5326 21.7015 15.5099 22.4964 15.3883L28.6924 14.4404Z" stroke="#0F172A" stroke-width="2" stroke-linecap="round" stroke-linejoin="round"/>
</svg>
